G04 #@! TF.FileFunction,Legend,Bot*
%FSLAX46Y46*%
G04 Gerber Fmt 4.6, Leading zero omitted, Abs format (unit mm)*
G04 Created by KiCad (PCBNEW (after 2015-mar-04 BZR unknown)-product) date 2015年07月10日金曜日 07:55:10*
%MOMM*%
G01*
G04 APERTURE LIST*
%ADD10C,0.100000*%
%ADD11C,0.250000*%
%ADD12C,0.200000*%
%ADD13C,0.300000*%
%ADD14C,0.275000*%
%ADD15C,0.150000*%
%ADD16C,3.250000*%
%ADD17C,1.924000*%
%ADD18R,1.924000X1.924000*%
%ADD19R,2.127200X2.127200*%
%ADD20O,2.127200X2.127200*%
%ADD21R,2.432000X2.127200*%
%ADD22O,2.432000X2.127200*%
G04 APERTURE END LIST*
D10*
D11*
X28914000Y8864286D02*
X28861619Y8969048D01*
X28861619Y9126191D01*
X28914000Y9283333D01*
X29018762Y9388095D01*
X29123524Y9440476D01*
X29333048Y9492857D01*
X29490190Y9492857D01*
X29699714Y9440476D01*
X29804476Y9388095D01*
X29909238Y9283333D01*
X29961619Y9126191D01*
X29961619Y9021429D01*
X29909238Y8864286D01*
X29856857Y8811905D01*
X29490190Y8811905D01*
X29490190Y9021429D01*
X29961619Y8340476D02*
X28861619Y8340476D01*
X29961619Y7711905D01*
X28861619Y7711905D01*
X29961619Y7188095D02*
X28861619Y7188095D01*
X28861619Y6926190D01*
X28914000Y6769048D01*
X29018762Y6664286D01*
X29123524Y6611905D01*
X29333048Y6559524D01*
X29490190Y6559524D01*
X29699714Y6611905D01*
X29804476Y6664286D01*
X29909238Y6769048D01*
X29961619Y6926190D01*
X29961619Y7188095D01*
X64944667Y16724381D02*
X64944667Y17438667D01*
X64897047Y17581524D01*
X64801809Y17676762D01*
X64658952Y17724381D01*
X64563714Y17724381D01*
X65849429Y16724381D02*
X65658952Y16724381D01*
X65563714Y16772000D01*
X65516095Y16819619D01*
X65420857Y16962476D01*
X65373238Y17152952D01*
X65373238Y17533905D01*
X65420857Y17629143D01*
X65468476Y17676762D01*
X65563714Y17724381D01*
X65754191Y17724381D01*
X65849429Y17676762D01*
X65897048Y17629143D01*
X65944667Y17533905D01*
X65944667Y17295810D01*
X65897048Y17200571D01*
X65849429Y17152952D01*
X65754191Y17105333D01*
X65563714Y17105333D01*
X65468476Y17152952D01*
X65420857Y17200571D01*
X65373238Y17295810D01*
D12*
X9144000Y20320000D02*
X1016000Y20320000D01*
X9144000Y23368000D02*
X9144000Y20320000D01*
X1016000Y23368000D02*
X9144000Y23368000D01*
D11*
X58325714Y18252381D02*
X58659047Y19252381D01*
X58992381Y18252381D01*
X59325714Y19252381D02*
X59325714Y18252381D01*
X59992380Y18252381D02*
X60182857Y18252381D01*
X60278095Y18300000D01*
X60373333Y18395238D01*
X60420952Y18585714D01*
X60420952Y18919048D01*
X60373333Y19109524D01*
X60278095Y19204762D01*
X60182857Y19252381D01*
X59992380Y19252381D01*
X59897142Y19204762D01*
X59801904Y19109524D01*
X59754285Y18919048D01*
X59754285Y18585714D01*
X59801904Y18395238D01*
X59897142Y18300000D01*
X59992380Y18252381D01*
X60611428Y19347619D02*
X61373333Y19347619D01*
X61516190Y18252381D02*
X62135238Y18252381D01*
X61801904Y18633333D01*
X61944762Y18633333D01*
X62040000Y18680952D01*
X62087619Y18728571D01*
X62135238Y18823810D01*
X62135238Y19061905D01*
X62087619Y19157143D01*
X62040000Y19204762D01*
X61944762Y19252381D01*
X61659047Y19252381D01*
X61563809Y19204762D01*
X61516190Y19157143D01*
X62420952Y18252381D02*
X62754285Y19252381D01*
X63087619Y18252381D01*
X63325714Y18252381D02*
X63944762Y18252381D01*
X63611428Y18633333D01*
X63754286Y18633333D01*
X63849524Y18680952D01*
X63897143Y18728571D01*
X63944762Y18823810D01*
X63944762Y19061905D01*
X63897143Y19157143D01*
X63849524Y19204762D01*
X63754286Y19252381D01*
X63468571Y19252381D01*
X63373333Y19204762D01*
X63325714Y19157143D01*
X64278095Y18252381D02*
X64944762Y18252381D01*
X64278095Y19252381D01*
X64944762Y19252381D01*
X65230476Y18252381D02*
X65897143Y18252381D01*
X65230476Y19252381D01*
X65897143Y19252381D01*
X54182857Y19902381D02*
X54182857Y20616667D01*
X54135237Y20759524D01*
X54039999Y20854762D01*
X53897142Y20902381D01*
X53801904Y20902381D01*
X54516190Y19902381D02*
X55087619Y19902381D01*
X54801904Y20902381D02*
X54801904Y19902381D01*
X55373333Y20616667D02*
X55849524Y20616667D01*
X55278095Y20902381D02*
X55611428Y19902381D01*
X55944762Y20902381D01*
X56801905Y19950000D02*
X56706667Y19902381D01*
X56563810Y19902381D01*
X56420952Y19950000D01*
X56325714Y20045238D01*
X56278095Y20140476D01*
X56230476Y20330952D01*
X56230476Y20473810D01*
X56278095Y20664286D01*
X56325714Y20759524D01*
X56420952Y20854762D01*
X56563810Y20902381D01*
X56659048Y20902381D01*
X56801905Y20854762D01*
X56849524Y20807143D01*
X56849524Y20473810D01*
X56659048Y20473810D01*
X57040000Y20997619D02*
X57801905Y20997619D01*
X57897143Y19902381D02*
X58468572Y19902381D01*
X58182857Y20902381D02*
X58182857Y19902381D01*
X58801905Y20902381D02*
X58801905Y19902381D01*
X59135239Y20616667D01*
X59468572Y19902381D01*
X59468572Y20902381D01*
X59897143Y20854762D02*
X60040000Y20902381D01*
X60278096Y20902381D01*
X60373334Y20854762D01*
X60420953Y20807143D01*
X60468572Y20711905D01*
X60468572Y20616667D01*
X60420953Y20521429D01*
X60373334Y20473810D01*
X60278096Y20426190D01*
X60087619Y20378571D01*
X59992381Y20330952D01*
X59944762Y20283333D01*
X59897143Y20188095D01*
X59897143Y20092857D01*
X59944762Y19997619D01*
X59992381Y19950000D01*
X60087619Y19902381D01*
X60325715Y19902381D01*
X60468572Y19950000D01*
X60659048Y20997619D02*
X61420953Y20997619D01*
X61611429Y20854762D02*
X61754286Y20902381D01*
X61992382Y20902381D01*
X62087620Y20854762D01*
X62135239Y20807143D01*
X62182858Y20711905D01*
X62182858Y20616667D01*
X62135239Y20521429D01*
X62087620Y20473810D01*
X61992382Y20426190D01*
X61801905Y20378571D01*
X61706667Y20330952D01*
X61659048Y20283333D01*
X61611429Y20188095D01*
X61611429Y20092857D01*
X61659048Y19997619D01*
X61706667Y19950000D01*
X61801905Y19902381D01*
X62040001Y19902381D01*
X62182858Y19950000D01*
X62516191Y19902381D02*
X62754286Y20902381D01*
X62944763Y20188095D01*
X63135239Y20902381D01*
X63373334Y19902381D01*
X63754286Y20902381D02*
X63754286Y19902381D01*
X63992381Y19902381D01*
X64135239Y19950000D01*
X64230477Y20045238D01*
X64278096Y20140476D01*
X64325715Y20330952D01*
X64325715Y20473810D01*
X64278096Y20664286D01*
X64230477Y20759524D01*
X64135239Y20854762D01*
X63992381Y20902381D01*
X63754286Y20902381D01*
X64754286Y20902381D02*
X64754286Y19902381D01*
X65420952Y19902381D02*
X65611429Y19902381D01*
X65706667Y19950000D01*
X65801905Y20045238D01*
X65849524Y20235714D01*
X65849524Y20569048D01*
X65801905Y20759524D01*
X65706667Y20854762D01*
X65611429Y20902381D01*
X65420952Y20902381D01*
X65325714Y20854762D01*
X65230476Y20759524D01*
X65182857Y20569048D01*
X65182857Y20235714D01*
X65230476Y20045238D01*
X65325714Y19950000D01*
X65420952Y19902381D01*
X53992380Y21552381D02*
X53992380Y22266667D01*
X53944760Y22409524D01*
X53849522Y22504762D01*
X53706665Y22552381D01*
X53611427Y22552381D01*
X54325713Y21552381D02*
X54897142Y21552381D01*
X54611427Y22552381D02*
X54611427Y21552381D01*
X55182856Y22266667D02*
X55659047Y22266667D01*
X55087618Y22552381D02*
X55420951Y21552381D01*
X55754285Y22552381D01*
X56611428Y21600000D02*
X56516190Y21552381D01*
X56373333Y21552381D01*
X56230475Y21600000D01*
X56135237Y21695238D01*
X56087618Y21790476D01*
X56039999Y21980952D01*
X56039999Y22123810D01*
X56087618Y22314286D01*
X56135237Y22409524D01*
X56230475Y22504762D01*
X56373333Y22552381D01*
X56468571Y22552381D01*
X56611428Y22504762D01*
X56659047Y22457143D01*
X56659047Y22123810D01*
X56468571Y22123810D01*
X56849523Y22647619D02*
X57611428Y22647619D01*
X57706666Y21552381D02*
X58278095Y21552381D01*
X57992380Y22552381D02*
X57992380Y21552381D01*
X59182857Y22457143D02*
X59135238Y22504762D01*
X58992381Y22552381D01*
X58897143Y22552381D01*
X58754285Y22504762D01*
X58659047Y22409524D01*
X58611428Y22314286D01*
X58563809Y22123810D01*
X58563809Y21980952D01*
X58611428Y21790476D01*
X58659047Y21695238D01*
X58754285Y21600000D01*
X58897143Y21552381D01*
X58992381Y21552381D01*
X59135238Y21600000D01*
X59182857Y21647619D01*
X59611428Y22552381D02*
X59611428Y21552381D01*
X60182857Y22552381D02*
X59754285Y21980952D01*
X60182857Y21552381D02*
X59611428Y22123810D01*
X60373333Y22647619D02*
X61135238Y22647619D01*
X61325714Y22504762D02*
X61468571Y22552381D01*
X61706667Y22552381D01*
X61801905Y22504762D01*
X61849524Y22457143D01*
X61897143Y22361905D01*
X61897143Y22266667D01*
X61849524Y22171429D01*
X61801905Y22123810D01*
X61706667Y22076190D01*
X61516190Y22028571D01*
X61420952Y21980952D01*
X61373333Y21933333D01*
X61325714Y21838095D01*
X61325714Y21742857D01*
X61373333Y21647619D01*
X61420952Y21600000D01*
X61516190Y21552381D01*
X61754286Y21552381D01*
X61897143Y21600000D01*
X62230476Y21552381D02*
X62468571Y22552381D01*
X62659048Y21838095D01*
X62849524Y22552381D01*
X63087619Y21552381D01*
X64040000Y22457143D02*
X63992381Y22504762D01*
X63849524Y22552381D01*
X63754286Y22552381D01*
X63611428Y22504762D01*
X63516190Y22409524D01*
X63468571Y22314286D01*
X63420952Y22123810D01*
X63420952Y21980952D01*
X63468571Y21790476D01*
X63516190Y21695238D01*
X63611428Y21600000D01*
X63754286Y21552381D01*
X63849524Y21552381D01*
X63992381Y21600000D01*
X64040000Y21647619D01*
X64944762Y22552381D02*
X64468571Y22552381D01*
X64468571Y21552381D01*
X65278095Y22552381D02*
X65278095Y21552381D01*
X65849524Y22552381D02*
X65420952Y21980952D01*
X65849524Y21552381D02*
X65278095Y22123810D01*
X55706666Y23202381D02*
X55706666Y23916667D01*
X55659046Y24059524D01*
X55563808Y24154762D01*
X55420951Y24202381D01*
X55325713Y24202381D01*
X56039999Y23202381D02*
X56611428Y23202381D01*
X56325713Y24202381D02*
X56325713Y23202381D01*
X56897142Y23916667D02*
X57373333Y23916667D01*
X56801904Y24202381D02*
X57135237Y23202381D01*
X57468571Y24202381D01*
X58325714Y23250000D02*
X58230476Y23202381D01*
X58087619Y23202381D01*
X57944761Y23250000D01*
X57849523Y23345238D01*
X57801904Y23440476D01*
X57754285Y23630952D01*
X57754285Y23773810D01*
X57801904Y23964286D01*
X57849523Y24059524D01*
X57944761Y24154762D01*
X58087619Y24202381D01*
X58182857Y24202381D01*
X58325714Y24154762D01*
X58373333Y24107143D01*
X58373333Y23773810D01*
X58182857Y23773810D01*
X58563809Y24297619D02*
X59325714Y24297619D01*
X59420952Y23202381D02*
X59992381Y23202381D01*
X59706666Y24202381D02*
X59706666Y23202381D01*
X60325714Y24202381D02*
X60325714Y23202381D01*
X60563809Y23202381D01*
X60706667Y23250000D01*
X60801905Y23345238D01*
X60849524Y23440476D01*
X60897143Y23630952D01*
X60897143Y23773810D01*
X60849524Y23964286D01*
X60801905Y24059524D01*
X60706667Y24154762D01*
X60563809Y24202381D01*
X60325714Y24202381D01*
X61516190Y23202381D02*
X61706667Y23202381D01*
X61801905Y23250000D01*
X61897143Y23345238D01*
X61944762Y23535714D01*
X61944762Y23869048D01*
X61897143Y24059524D01*
X61801905Y24154762D01*
X61706667Y24202381D01*
X61516190Y24202381D01*
X61420952Y24154762D01*
X61325714Y24059524D01*
X61278095Y23869048D01*
X61278095Y23535714D01*
X61325714Y23345238D01*
X61420952Y23250000D01*
X61516190Y23202381D01*
X62135238Y24297619D02*
X62897143Y24297619D01*
X63087619Y24154762D02*
X63230476Y24202381D01*
X63468572Y24202381D01*
X63563810Y24154762D01*
X63611429Y24107143D01*
X63659048Y24011905D01*
X63659048Y23916667D01*
X63611429Y23821429D01*
X63563810Y23773810D01*
X63468572Y23726190D01*
X63278095Y23678571D01*
X63182857Y23630952D01*
X63135238Y23583333D01*
X63087619Y23488095D01*
X63087619Y23392857D01*
X63135238Y23297619D01*
X63182857Y23250000D01*
X63278095Y23202381D01*
X63516191Y23202381D01*
X63659048Y23250000D01*
X63992381Y23202381D02*
X64230476Y24202381D01*
X64420953Y23488095D01*
X64611429Y24202381D01*
X64849524Y23202381D01*
X65420952Y23202381D02*
X65611429Y23202381D01*
X65706667Y23250000D01*
X65801905Y23345238D01*
X65849524Y23535714D01*
X65849524Y23869048D01*
X65801905Y24059524D01*
X65706667Y24154762D01*
X65611429Y24202381D01*
X65420952Y24202381D01*
X65325714Y24154762D01*
X65230476Y24059524D01*
X65182857Y23869048D01*
X65182857Y23535714D01*
X65230476Y23345238D01*
X65325714Y23250000D01*
X65420952Y23202381D01*
X60182857Y24852381D02*
X60182857Y25566667D01*
X60135237Y25709524D01*
X60039999Y25804762D01*
X59897142Y25852381D01*
X59801904Y25852381D01*
X60516190Y24852381D02*
X61087619Y24852381D01*
X60801904Y25852381D02*
X60801904Y24852381D01*
X61373333Y25566667D02*
X61849524Y25566667D01*
X61278095Y25852381D02*
X61611428Y24852381D01*
X61944762Y25852381D01*
X62801905Y24900000D02*
X62706667Y24852381D01*
X62563810Y24852381D01*
X62420952Y24900000D01*
X62325714Y24995238D01*
X62278095Y25090476D01*
X62230476Y25280952D01*
X62230476Y25423810D01*
X62278095Y25614286D01*
X62325714Y25709524D01*
X62420952Y25804762D01*
X62563810Y25852381D01*
X62659048Y25852381D01*
X62801905Y25804762D01*
X62849524Y25757143D01*
X62849524Y25423810D01*
X62659048Y25423810D01*
X63040000Y25947619D02*
X63801905Y25947619D01*
X63897143Y24852381D02*
X64468572Y24852381D01*
X64182857Y25852381D02*
X64182857Y24852381D01*
X64801905Y25852381D02*
X64801905Y24852381D01*
X65040000Y24852381D01*
X65182858Y24900000D01*
X65278096Y24995238D01*
X65325715Y25090476D01*
X65373334Y25280952D01*
X65373334Y25423810D01*
X65325715Y25614286D01*
X65278096Y25709524D01*
X65182858Y25804762D01*
X65040000Y25852381D01*
X64801905Y25852381D01*
X65801905Y25852381D02*
X65801905Y24852381D01*
X57897142Y26502381D02*
X57897142Y27216667D01*
X57849522Y27359524D01*
X57754284Y27454762D01*
X57611427Y27502381D01*
X57516189Y27502381D01*
X58230475Y26502381D02*
X58801904Y26502381D01*
X58516189Y27502381D02*
X58516189Y26502381D01*
X59087618Y27216667D02*
X59563809Y27216667D01*
X58992380Y27502381D02*
X59325713Y26502381D01*
X59659047Y27502381D01*
X60516190Y26550000D02*
X60420952Y26502381D01*
X60278095Y26502381D01*
X60135237Y26550000D01*
X60039999Y26645238D01*
X59992380Y26740476D01*
X59944761Y26930952D01*
X59944761Y27073810D01*
X59992380Y27264286D01*
X60039999Y27359524D01*
X60135237Y27454762D01*
X60278095Y27502381D01*
X60373333Y27502381D01*
X60516190Y27454762D01*
X60563809Y27407143D01*
X60563809Y27073810D01*
X60373333Y27073810D01*
X60754285Y27597619D02*
X61516190Y27597619D01*
X62325714Y27502381D02*
X61992380Y27026190D01*
X61754285Y27502381D02*
X61754285Y26502381D01*
X62135238Y26502381D01*
X62230476Y26550000D01*
X62278095Y26597619D01*
X62325714Y26692857D01*
X62325714Y26835714D01*
X62278095Y26930952D01*
X62230476Y26978571D01*
X62135238Y27026190D01*
X61754285Y27026190D01*
X62754285Y26978571D02*
X63087619Y26978571D01*
X63230476Y27502381D02*
X62754285Y27502381D01*
X62754285Y26502381D01*
X63230476Y26502381D01*
X63611428Y27454762D02*
X63754285Y27502381D01*
X63992381Y27502381D01*
X64087619Y27454762D01*
X64135238Y27407143D01*
X64182857Y27311905D01*
X64182857Y27216667D01*
X64135238Y27121429D01*
X64087619Y27073810D01*
X63992381Y27026190D01*
X63801904Y26978571D01*
X63706666Y26930952D01*
X63659047Y26883333D01*
X63611428Y26788095D01*
X63611428Y26692857D01*
X63659047Y26597619D01*
X63706666Y26550000D01*
X63801904Y26502381D01*
X64040000Y26502381D01*
X64182857Y26550000D01*
X64611428Y26978571D02*
X64944762Y26978571D01*
X65087619Y27502381D02*
X64611428Y27502381D01*
X64611428Y26502381D01*
X65087619Y26502381D01*
X65373333Y26502381D02*
X65944762Y26502381D01*
X65659047Y27502381D02*
X65659047Y26502381D01*
X59706666Y28628571D02*
X60040000Y28628571D01*
X60182857Y29152381D02*
X59706666Y29152381D01*
X59706666Y28152381D01*
X60182857Y28152381D01*
X60516190Y28152381D02*
X61182857Y29152381D01*
X61182857Y28152381D02*
X60516190Y29152381D01*
X61420952Y28152381D02*
X61992381Y28152381D01*
X61706666Y29152381D02*
X61706666Y28152381D01*
X62087619Y29247619D02*
X62849524Y29247619D01*
X63087619Y29152381D02*
X63087619Y28152381D01*
X63468572Y28152381D01*
X63563810Y28200000D01*
X63611429Y28247619D01*
X63659048Y28342857D01*
X63659048Y28485714D01*
X63611429Y28580952D01*
X63563810Y28628571D01*
X63468572Y28676190D01*
X63087619Y28676190D01*
X64278095Y28152381D02*
X64468572Y28152381D01*
X64563810Y28200000D01*
X64659048Y28295238D01*
X64706667Y28485714D01*
X64706667Y28819048D01*
X64659048Y29009524D01*
X64563810Y29104762D01*
X64468572Y29152381D01*
X64278095Y29152381D01*
X64182857Y29104762D01*
X64087619Y29009524D01*
X64040000Y28819048D01*
X64040000Y28485714D01*
X64087619Y28295238D01*
X64182857Y28200000D01*
X64278095Y28152381D01*
X65040000Y28152381D02*
X65278095Y29152381D01*
X65468572Y28438095D01*
X65659048Y29152381D01*
X65897143Y28152381D01*
X63754286Y29850000D02*
X63659048Y29802381D01*
X63516191Y29802381D01*
X63373333Y29850000D01*
X63278095Y29945238D01*
X63230476Y30040476D01*
X63182857Y30230952D01*
X63182857Y30373810D01*
X63230476Y30564286D01*
X63278095Y30659524D01*
X63373333Y30754762D01*
X63516191Y30802381D01*
X63611429Y30802381D01*
X63754286Y30754762D01*
X63801905Y30707143D01*
X63801905Y30373810D01*
X63611429Y30373810D01*
X64230476Y30802381D02*
X64230476Y29802381D01*
X64801905Y30802381D01*
X64801905Y29802381D01*
X65278095Y30802381D02*
X65278095Y29802381D01*
X65516190Y29802381D01*
X65659048Y29850000D01*
X65754286Y29945238D01*
X65801905Y30040476D01*
X65849524Y30230952D01*
X65849524Y30373810D01*
X65801905Y30564286D01*
X65754286Y30659524D01*
X65659048Y30754762D01*
X65516190Y30802381D01*
X65278095Y30802381D01*
X57706666Y32452381D02*
X57706666Y31452381D01*
X58135237Y32404762D02*
X58278094Y32452381D01*
X58516190Y32452381D01*
X58611428Y32404762D01*
X58659047Y32357143D01*
X58706666Y32261905D01*
X58706666Y32166667D01*
X58659047Y32071429D01*
X58611428Y32023810D01*
X58516190Y31976190D01*
X58325713Y31928571D01*
X58230475Y31880952D01*
X58182856Y31833333D01*
X58135237Y31738095D01*
X58135237Y31642857D01*
X58182856Y31547619D01*
X58230475Y31500000D01*
X58325713Y31452381D01*
X58563809Y31452381D01*
X58706666Y31500000D01*
X59135237Y32452381D02*
X59135237Y31452381D01*
X59516190Y31452381D01*
X59611428Y31500000D01*
X59659047Y31547619D01*
X59706666Y31642857D01*
X59706666Y31785714D01*
X59659047Y31880952D01*
X59611428Y31928571D01*
X59516190Y31976190D01*
X59135237Y31976190D01*
X59897142Y32547619D02*
X60659047Y32547619D01*
X61468571Y32357143D02*
X61420952Y32404762D01*
X61278095Y32452381D01*
X61182857Y32452381D01*
X61039999Y32404762D01*
X60944761Y32309524D01*
X60897142Y32214286D01*
X60849523Y32023810D01*
X60849523Y31880952D01*
X60897142Y31690476D01*
X60944761Y31595238D01*
X61039999Y31500000D01*
X61182857Y31452381D01*
X61278095Y31452381D01*
X61420952Y31500000D01*
X61468571Y31547619D01*
X61754285Y31452381D02*
X62325714Y31452381D01*
X62039999Y32452381D02*
X62039999Y31452381D01*
X63135238Y32452381D02*
X62659047Y32452381D01*
X62659047Y31452381D01*
X63230476Y32547619D02*
X63992381Y32547619D01*
X64420952Y31452381D02*
X64611429Y31452381D01*
X64706667Y31500000D01*
X64801905Y31595238D01*
X64849524Y31785714D01*
X64849524Y32119048D01*
X64801905Y32309524D01*
X64706667Y32404762D01*
X64611429Y32452381D01*
X64420952Y32452381D01*
X64325714Y32404762D01*
X64230476Y32309524D01*
X64182857Y32119048D01*
X64182857Y31785714D01*
X64230476Y31595238D01*
X64325714Y31500000D01*
X64420952Y31452381D01*
X65278095Y32452381D02*
X65278095Y31452381D01*
X65516190Y31452381D01*
X65659048Y31500000D01*
X65754286Y31595238D01*
X65801905Y31690476D01*
X65849524Y31880952D01*
X65849524Y32023810D01*
X65801905Y32214286D01*
X65754286Y32309524D01*
X65659048Y32404762D01*
X65516190Y32452381D01*
X65278095Y32452381D01*
D13*
X9338571Y18572856D02*
X10410000Y18572856D01*
X10624286Y18644284D01*
X10767143Y18787141D01*
X10838571Y19001427D01*
X10838571Y19144284D01*
X9481429Y17929999D02*
X9410000Y17858570D01*
X9338571Y17715713D01*
X9338571Y17358570D01*
X9410000Y17215713D01*
X9481429Y17144284D01*
X9624286Y17072856D01*
X9767143Y17072856D01*
X9981429Y17144284D01*
X10838571Y18001427D01*
X10838571Y17072856D01*
X10267143Y16429999D02*
X10267143Y15287142D01*
X10838571Y13787142D02*
X10838571Y14644285D01*
X10838571Y14215713D02*
X9338571Y14215713D01*
X9552857Y14358570D01*
X9695714Y14501428D01*
X9767143Y14644285D01*
X9338571Y12215714D02*
X10838571Y11715714D01*
X9338571Y11215714D01*
X10838571Y10715714D02*
X9338571Y10715714D01*
X9338571Y9715714D02*
X9338571Y9430000D01*
X9410000Y9287142D01*
X9552857Y9144285D01*
X9838571Y9072857D01*
X10338571Y9072857D01*
X10624286Y9144285D01*
X10767143Y9287142D01*
X10838571Y9430000D01*
X10838571Y9715714D01*
X10767143Y9858571D01*
X10624286Y10001428D01*
X10338571Y10072857D01*
X9838571Y10072857D01*
X9552857Y10001428D01*
X9410000Y9858571D01*
X9338571Y9715714D01*
X10981429Y8787142D02*
X10981429Y7644285D01*
X9338571Y7429999D02*
X9338571Y6501428D01*
X9910000Y7001428D01*
X9910000Y6787142D01*
X9981429Y6644285D01*
X10052857Y6572856D01*
X10195714Y6501428D01*
X10552857Y6501428D01*
X10695714Y6572856D01*
X10767143Y6644285D01*
X10838571Y6787142D01*
X10838571Y7215714D01*
X10767143Y7358571D01*
X10695714Y7429999D01*
X9338571Y6072857D02*
X10838571Y5572857D01*
X9338571Y5072857D01*
X9338571Y4715714D02*
X9338571Y3787143D01*
X9910000Y4287143D01*
X9910000Y4072857D01*
X9981429Y3930000D01*
X10052857Y3858571D01*
X10195714Y3787143D01*
X10552857Y3787143D01*
X10695714Y3858571D01*
X10767143Y3930000D01*
X10838571Y4072857D01*
X10838571Y4501429D01*
X10767143Y4644286D01*
X10695714Y4715714D01*
D11*
X24836381Y18842096D02*
X24836381Y19318287D01*
X23836381Y19318287D01*
X24836381Y18508763D02*
X23836381Y18508763D01*
X23836381Y18127810D01*
X23884000Y18032572D01*
X23931619Y17984953D01*
X24026857Y17937334D01*
X24169714Y17937334D01*
X24264952Y17984953D01*
X24312571Y18032572D01*
X24360190Y18127810D01*
X24360190Y18508763D01*
X24741143Y16937334D02*
X24788762Y16984953D01*
X24836381Y17127810D01*
X24836381Y17223048D01*
X24788762Y17365906D01*
X24693524Y17461144D01*
X24598286Y17508763D01*
X24407810Y17556382D01*
X24264952Y17556382D01*
X24074476Y17508763D01*
X23979238Y17461144D01*
X23884000Y17365906D01*
X23836381Y17223048D01*
X23836381Y17127810D01*
X23884000Y16984953D01*
X23931619Y16937334D01*
X24169714Y16080191D02*
X24836381Y16080191D01*
X23788762Y16318287D02*
X24503048Y16556382D01*
X24503048Y15937334D01*
X23836381Y15651620D02*
X23836381Y15032572D01*
X24217333Y15365906D01*
X24217333Y15223048D01*
X24264952Y15127810D01*
X24312571Y15080191D01*
X24407810Y15032572D01*
X24645905Y15032572D01*
X24741143Y15080191D01*
X24788762Y15127810D01*
X24836381Y15223048D01*
X24836381Y15508763D01*
X24788762Y15604001D01*
X24741143Y15651620D01*
X23836381Y14699239D02*
X23836381Y14032572D01*
X24836381Y14461144D01*
X23836381Y13461144D02*
X23836381Y13365905D01*
X23884000Y13270667D01*
X23931619Y13223048D01*
X24026857Y13175429D01*
X24217333Y13127810D01*
X24455429Y13127810D01*
X24645905Y13175429D01*
X24741143Y13223048D01*
X24788762Y13270667D01*
X24836381Y13365905D01*
X24836381Y13461144D01*
X24788762Y13556382D01*
X24741143Y13604001D01*
X24645905Y13651620D01*
X24455429Y13699239D01*
X24217333Y13699239D01*
X24026857Y13651620D01*
X23931619Y13604001D01*
X23884000Y13556382D01*
X23836381Y13461144D01*
X24931619Y12937334D02*
X24931619Y12175429D01*
X24836381Y11937334D02*
X23836381Y11937334D01*
X24836381Y11365905D01*
X23836381Y11365905D01*
X24836381Y10318286D02*
X24360190Y10651620D01*
X24836381Y10889715D02*
X23836381Y10889715D01*
X23836381Y10508762D01*
X23884000Y10413524D01*
X23931619Y10365905D01*
X24026857Y10318286D01*
X24169714Y10318286D01*
X24264952Y10365905D01*
X24312571Y10413524D01*
X24360190Y10508762D01*
X24360190Y10889715D01*
X24312571Y9889715D02*
X24312571Y9556381D01*
X24836381Y9413524D02*
X24836381Y9889715D01*
X23836381Y9889715D01*
X23836381Y9413524D01*
X24788762Y9032572D02*
X24836381Y8889715D01*
X24836381Y8651619D01*
X24788762Y8556381D01*
X24741143Y8508762D01*
X24645905Y8461143D01*
X24550667Y8461143D01*
X24455429Y8508762D01*
X24407810Y8556381D01*
X24360190Y8651619D01*
X24312571Y8842096D01*
X24264952Y8937334D01*
X24217333Y8984953D01*
X24122095Y9032572D01*
X24026857Y9032572D01*
X23931619Y8984953D01*
X23884000Y8937334D01*
X23836381Y8842096D01*
X23836381Y8604000D01*
X23884000Y8461143D01*
X24312571Y8032572D02*
X24312571Y7699238D01*
X24836381Y7556381D02*
X24836381Y8032572D01*
X23836381Y8032572D01*
X23836381Y7556381D01*
X23836381Y7270667D02*
X23836381Y6699238D01*
X24836381Y6984953D02*
X23836381Y6984953D01*
X22522571Y19961141D02*
X22522571Y20675427D01*
X21022571Y20675427D01*
X22522571Y19461141D02*
X21022571Y19461141D01*
X21022571Y18889713D01*
X21094000Y18746855D01*
X21165429Y18675427D01*
X21308286Y18603998D01*
X21522571Y18603998D01*
X21665429Y18675427D01*
X21736857Y18746855D01*
X21808286Y18889713D01*
X21808286Y19461141D01*
X22379714Y17103998D02*
X22451143Y17175427D01*
X22522571Y17389713D01*
X22522571Y17532570D01*
X22451143Y17746855D01*
X22308286Y17889713D01*
X22165429Y17961141D01*
X21879714Y18032570D01*
X21665429Y18032570D01*
X21379714Y17961141D01*
X21236857Y17889713D01*
X21094000Y17746855D01*
X21022571Y17532570D01*
X21022571Y17389713D01*
X21094000Y17175427D01*
X21165429Y17103998D01*
X21522571Y15818284D02*
X22522571Y15818284D01*
X20951143Y16175427D02*
X22022571Y16532570D01*
X22022571Y15603998D01*
X21022571Y15175427D02*
X21022571Y14246856D01*
X21594000Y14746856D01*
X21594000Y14532570D01*
X21665429Y14389713D01*
X21736857Y14318284D01*
X21879714Y14246856D01*
X22236857Y14246856D01*
X22379714Y14318284D01*
X22451143Y14389713D01*
X22522571Y14532570D01*
X22522571Y14961142D01*
X22451143Y15103999D01*
X22379714Y15175427D01*
X21022571Y13746856D02*
X21022571Y12746856D01*
X22522571Y13389713D01*
X21022571Y11889714D02*
X21022571Y11746857D01*
X21094000Y11604000D01*
X21165429Y11532571D01*
X21308286Y11461142D01*
X21594000Y11389714D01*
X21951143Y11389714D01*
X22236857Y11461142D01*
X22379714Y11532571D01*
X22451143Y11604000D01*
X22522571Y11746857D01*
X22522571Y11889714D01*
X22451143Y12032571D01*
X22379714Y12104000D01*
X22236857Y12175428D01*
X21951143Y12246857D01*
X21594000Y12246857D01*
X21308286Y12175428D01*
X21165429Y12104000D01*
X21094000Y12032571D01*
X21022571Y11889714D01*
X22665429Y11104000D02*
X22665429Y9961143D01*
X21022571Y9818286D02*
X21022571Y8961143D01*
X22522571Y9389714D02*
X21022571Y9389714D01*
X22522571Y8461143D02*
X21022571Y8461143D01*
X21022571Y8104000D01*
X21094000Y7889715D01*
X21236857Y7746857D01*
X21379714Y7675429D01*
X21665429Y7604000D01*
X21879714Y7604000D01*
X22165429Y7675429D01*
X22308286Y7746857D01*
X22451143Y7889715D01*
X22522571Y8104000D01*
X22522571Y8461143D01*
X22522571Y6961143D02*
X21022571Y6961143D01*
X19982571Y20818284D02*
X19982571Y21532570D01*
X18482571Y21532570D01*
X19982571Y20318284D02*
X18482571Y20318284D01*
X18482571Y19746856D01*
X18554000Y19603998D01*
X18625429Y19532570D01*
X18768286Y19461141D01*
X18982571Y19461141D01*
X19125429Y19532570D01*
X19196857Y19603998D01*
X19268286Y19746856D01*
X19268286Y20318284D01*
X19839714Y17961141D02*
X19911143Y18032570D01*
X19982571Y18246856D01*
X19982571Y18389713D01*
X19911143Y18603998D01*
X19768286Y18746856D01*
X19625429Y18818284D01*
X19339714Y18889713D01*
X19125429Y18889713D01*
X18839714Y18818284D01*
X18696857Y18746856D01*
X18554000Y18603998D01*
X18482571Y18389713D01*
X18482571Y18246856D01*
X18554000Y18032570D01*
X18625429Y17961141D01*
X18982571Y16675427D02*
X19982571Y16675427D01*
X18411143Y17032570D02*
X19482571Y17389713D01*
X19482571Y16461141D01*
X18482571Y16032570D02*
X18482571Y15103999D01*
X19054000Y15603999D01*
X19054000Y15389713D01*
X19125429Y15246856D01*
X19196857Y15175427D01*
X19339714Y15103999D01*
X19696857Y15103999D01*
X19839714Y15175427D01*
X19911143Y15246856D01*
X19982571Y15389713D01*
X19982571Y15818285D01*
X19911143Y15961142D01*
X19839714Y16032570D01*
X18482571Y14603999D02*
X18482571Y13603999D01*
X19982571Y14246856D01*
X18482571Y12746857D02*
X18482571Y12604000D01*
X18554000Y12461143D01*
X18625429Y12389714D01*
X18768286Y12318285D01*
X19054000Y12246857D01*
X19411143Y12246857D01*
X19696857Y12318285D01*
X19839714Y12389714D01*
X19911143Y12461143D01*
X19982571Y12604000D01*
X19982571Y12746857D01*
X19911143Y12889714D01*
X19839714Y12961143D01*
X19696857Y13032571D01*
X19411143Y13104000D01*
X19054000Y13104000D01*
X18768286Y13032571D01*
X18625429Y12961143D01*
X18554000Y12889714D01*
X18482571Y12746857D01*
X20125429Y11961143D02*
X20125429Y10818286D01*
X18482571Y10675429D02*
X18482571Y9818286D01*
X19982571Y10246857D02*
X18482571Y10246857D01*
X19982571Y9318286D02*
X18482571Y9318286D01*
X18482571Y8961143D01*
X18554000Y8746858D01*
X18696857Y8604000D01*
X18839714Y8532572D01*
X19125429Y8461143D01*
X19339714Y8461143D01*
X19625429Y8532572D01*
X19768286Y8604000D01*
X19911143Y8746858D01*
X19982571Y8961143D01*
X19982571Y9318286D01*
X18482571Y7532572D02*
X18482571Y7246858D01*
X18554000Y7104000D01*
X18696857Y6961143D01*
X18982571Y6889715D01*
X19482571Y6889715D01*
X19768286Y6961143D01*
X19911143Y7104000D01*
X19982571Y7246858D01*
X19982571Y7532572D01*
X19911143Y7675429D01*
X19768286Y7818286D01*
X19482571Y7889715D01*
X18982571Y7889715D01*
X18696857Y7818286D01*
X18554000Y7675429D01*
X18482571Y7532572D01*
X17442571Y20746855D02*
X17442571Y21461141D01*
X15942571Y21461141D01*
X17442571Y20246855D02*
X15942571Y20246855D01*
X15942571Y19675427D01*
X16014000Y19532569D01*
X16085429Y19461141D01*
X16228286Y19389712D01*
X16442571Y19389712D01*
X16585429Y19461141D01*
X16656857Y19532569D01*
X16728286Y19675427D01*
X16728286Y20246855D01*
X17299714Y17889712D02*
X17371143Y17961141D01*
X17442571Y18175427D01*
X17442571Y18318284D01*
X17371143Y18532569D01*
X17228286Y18675427D01*
X17085429Y18746855D01*
X16799714Y18818284D01*
X16585429Y18818284D01*
X16299714Y18746855D01*
X16156857Y18675427D01*
X16014000Y18532569D01*
X15942571Y18318284D01*
X15942571Y18175427D01*
X16014000Y17961141D01*
X16085429Y17889712D01*
X16442571Y16603998D02*
X17442571Y16603998D01*
X15871143Y16961141D02*
X16942571Y17318284D01*
X16942571Y16389712D01*
X15942571Y15961141D02*
X15942571Y15032570D01*
X16514000Y15532570D01*
X16514000Y15318284D01*
X16585429Y15175427D01*
X16656857Y15103998D01*
X16799714Y15032570D01*
X17156857Y15032570D01*
X17299714Y15103998D01*
X17371143Y15175427D01*
X17442571Y15318284D01*
X17442571Y15746856D01*
X17371143Y15889713D01*
X17299714Y15961141D01*
X15942571Y14532570D02*
X15942571Y13532570D01*
X17442571Y14175427D01*
X15942571Y12675428D02*
X15942571Y12532571D01*
X16014000Y12389714D01*
X16085429Y12318285D01*
X16228286Y12246856D01*
X16514000Y12175428D01*
X16871143Y12175428D01*
X17156857Y12246856D01*
X17299714Y12318285D01*
X17371143Y12389714D01*
X17442571Y12532571D01*
X17442571Y12675428D01*
X17371143Y12818285D01*
X17299714Y12889714D01*
X17156857Y12961142D01*
X16871143Y13032571D01*
X16514000Y13032571D01*
X16228286Y12961142D01*
X16085429Y12889714D01*
X16014000Y12818285D01*
X15942571Y12675428D01*
X17585429Y11889714D02*
X17585429Y10746857D01*
X15942571Y10604000D02*
X15942571Y9746857D01*
X17442571Y10175428D02*
X15942571Y10175428D01*
X17299714Y8389714D02*
X17371143Y8461143D01*
X17442571Y8675429D01*
X17442571Y8818286D01*
X17371143Y9032571D01*
X17228286Y9175429D01*
X17085429Y9246857D01*
X16799714Y9318286D01*
X16585429Y9318286D01*
X16299714Y9246857D01*
X16156857Y9175429D01*
X16014000Y9032571D01*
X15942571Y8818286D01*
X15942571Y8675429D01*
X16014000Y8461143D01*
X16085429Y8389714D01*
X17442571Y7746857D02*
X15942571Y7746857D01*
X17442571Y6889714D02*
X16585429Y7532571D01*
X15942571Y6889714D02*
X16799714Y7746857D01*
X14902571Y20889712D02*
X14902571Y21603998D01*
X13402571Y21603998D01*
X14902571Y20389712D02*
X13402571Y20389712D01*
X13402571Y19818284D01*
X13474000Y19675426D01*
X13545429Y19603998D01*
X13688286Y19532569D01*
X13902571Y19532569D01*
X14045429Y19603998D01*
X14116857Y19675426D01*
X14188286Y19818284D01*
X14188286Y20389712D01*
X14759714Y18032569D02*
X14831143Y18103998D01*
X14902571Y18318284D01*
X14902571Y18461141D01*
X14831143Y18675426D01*
X14688286Y18818284D01*
X14545429Y18889712D01*
X14259714Y18961141D01*
X14045429Y18961141D01*
X13759714Y18889712D01*
X13616857Y18818284D01*
X13474000Y18675426D01*
X13402571Y18461141D01*
X13402571Y18318284D01*
X13474000Y18103998D01*
X13545429Y18032569D01*
X13902571Y16746855D02*
X14902571Y16746855D01*
X13331143Y17103998D02*
X14402571Y17461141D01*
X14402571Y16532569D01*
X13402571Y16103998D02*
X13402571Y15175427D01*
X13974000Y15675427D01*
X13974000Y15461141D01*
X14045429Y15318284D01*
X14116857Y15246855D01*
X14259714Y15175427D01*
X14616857Y15175427D01*
X14759714Y15246855D01*
X14831143Y15318284D01*
X14902571Y15461141D01*
X14902571Y15889713D01*
X14831143Y16032570D01*
X14759714Y16103998D01*
X13402571Y14675427D02*
X13402571Y13675427D01*
X14902571Y14318284D01*
X13402571Y12818285D02*
X13402571Y12675428D01*
X13474000Y12532571D01*
X13545429Y12461142D01*
X13688286Y12389713D01*
X13974000Y12318285D01*
X14331143Y12318285D01*
X14616857Y12389713D01*
X14759714Y12461142D01*
X14831143Y12532571D01*
X14902571Y12675428D01*
X14902571Y12818285D01*
X14831143Y12961142D01*
X14759714Y13032571D01*
X14616857Y13103999D01*
X14331143Y13175428D01*
X13974000Y13175428D01*
X13688286Y13103999D01*
X13545429Y13032571D01*
X13474000Y12961142D01*
X13402571Y12818285D01*
X15045429Y12032571D02*
X15045429Y10889714D01*
X13402571Y10746857D02*
X13402571Y9889714D01*
X14902571Y10318285D02*
X13402571Y10318285D01*
X14902571Y9389714D02*
X13402571Y9389714D01*
X14474000Y8889714D01*
X13402571Y8389714D01*
X14902571Y8389714D01*
X14831143Y7746857D02*
X14902571Y7532571D01*
X14902571Y7175428D01*
X14831143Y7032571D01*
X14759714Y6961142D01*
X14616857Y6889714D01*
X14474000Y6889714D01*
X14331143Y6961142D01*
X14259714Y7032571D01*
X14188286Y7175428D01*
X14116857Y7461142D01*
X14045429Y7604000D01*
X13974000Y7675428D01*
X13831143Y7746857D01*
X13688286Y7746857D01*
X13545429Y7675428D01*
X13474000Y7604000D01*
X13402571Y7461142D01*
X13402571Y7104000D01*
X13474000Y6889714D01*
X26120000Y10642286D02*
X26067619Y10747048D01*
X26067619Y10904191D01*
X26120000Y11061333D01*
X26224762Y11166095D01*
X26329524Y11218476D01*
X26539048Y11270857D01*
X26696190Y11270857D01*
X26905714Y11218476D01*
X27010476Y11166095D01*
X27115238Y11061333D01*
X27167619Y10904191D01*
X27167619Y10799429D01*
X27115238Y10642286D01*
X27062857Y10589905D01*
X26696190Y10589905D01*
X26696190Y10799429D01*
X27167619Y10118476D02*
X26067619Y10118476D01*
X27167619Y9489905D01*
X26067619Y9489905D01*
X27167619Y8966095D02*
X26067619Y8966095D01*
X26067619Y8704190D01*
X26120000Y8547048D01*
X26224762Y8442286D01*
X26329524Y8389905D01*
X26539048Y8337524D01*
X26696190Y8337524D01*
X26905714Y8389905D01*
X27010476Y8442286D01*
X27115238Y8547048D01*
X27167619Y8704190D01*
X27167619Y8966095D01*
D12*
X26162000Y7112000D02*
X26416000Y7366000D01*
X26416000Y7112000D02*
X26162000Y7112000D01*
X26670000Y7620000D02*
X26416000Y7112000D01*
X26416000Y7112000D02*
X26670000Y7620000D01*
X26924000Y7112000D02*
X26416000Y7112000D01*
X26924000Y7366000D02*
X26924000Y7112000D01*
X26670000Y7620000D02*
X26924000Y7366000D01*
X26670000Y7366000D02*
X26670000Y7620000D01*
X26924000Y7112000D02*
X26670000Y7366000D01*
X26416000Y7112000D02*
X26924000Y7112000D01*
X27178000Y7112000D02*
X26670000Y7874000D01*
X26162000Y7112000D02*
X27178000Y7112000D01*
X26670000Y7874000D02*
X26162000Y7112000D01*
X26670000Y6096000D02*
X26670000Y7874000D01*
X24384000Y6096000D02*
X24384000Y5842000D01*
X29464000Y6096000D02*
X24384000Y6096000D01*
X29464000Y5334000D02*
X29464000Y6096000D01*
X24384000Y5842000D02*
X24384000Y5334000D01*
X19304000Y5842000D02*
X24384000Y5842000D01*
X19304000Y6096000D02*
X19304000Y5334000D01*
X16764000Y6096000D02*
X19304000Y6096000D01*
X16764000Y5334000D02*
X16764000Y6096000D01*
D13*
X46748000Y11048572D02*
X46676571Y11191429D01*
X46676571Y11405715D01*
X46748000Y11620000D01*
X46890857Y11762858D01*
X47033714Y11834286D01*
X47319429Y11905715D01*
X47533714Y11905715D01*
X47819429Y11834286D01*
X47962286Y11762858D01*
X48105143Y11620000D01*
X48176571Y11405715D01*
X48176571Y11262858D01*
X48105143Y11048572D01*
X48033714Y10977143D01*
X47533714Y10977143D01*
X47533714Y11262858D01*
X48176571Y10334286D02*
X46676571Y10334286D01*
X48176571Y9477143D01*
X46676571Y9477143D01*
X48176571Y8762857D02*
X46676571Y8762857D01*
X46676571Y8405714D01*
X46748000Y8191429D01*
X46890857Y8048571D01*
X47033714Y7977143D01*
X47319429Y7905714D01*
X47533714Y7905714D01*
X47819429Y7977143D01*
X47962286Y8048571D01*
X48105143Y8191429D01*
X48176571Y8405714D01*
X48176571Y8762857D01*
D12*
X47244000Y6858000D02*
X47244000Y6604000D01*
X47752000Y6858000D02*
X47244000Y6858000D01*
X47498000Y7112000D02*
X47752000Y6858000D01*
X47752000Y6858000D02*
X47498000Y7112000D01*
X47752000Y6604000D02*
X47752000Y6858000D01*
X47244000Y6858000D02*
X47752000Y6604000D01*
X47498000Y7112000D02*
X47244000Y6858000D01*
X46990000Y6604000D02*
X47498000Y7366000D01*
X48006000Y6604000D02*
X46990000Y6604000D01*
X47498000Y7366000D02*
X48006000Y6604000D01*
X47498000Y6096000D02*
X47498000Y7366000D01*
X50292000Y6096000D02*
X47498000Y6096000D01*
X50292000Y5842000D02*
X50292000Y6096000D01*
X72644000Y5842000D02*
X72644000Y5334000D01*
X49784000Y5842000D02*
X72644000Y5842000D01*
X49784000Y5334000D02*
X49784000Y5842000D01*
D11*
X45474000Y20160571D02*
X45426381Y20255809D01*
X45426381Y20398666D01*
X45474000Y20541524D01*
X45569238Y20636762D01*
X45664476Y20684381D01*
X45854952Y20732000D01*
X45997810Y20732000D01*
X46188286Y20684381D01*
X46283524Y20636762D01*
X46378762Y20541524D01*
X46426381Y20398666D01*
X46426381Y20303428D01*
X46378762Y20160571D01*
X46331143Y20112952D01*
X45997810Y20112952D01*
X45997810Y20303428D01*
X46426381Y19684381D02*
X45426381Y19684381D01*
X45426381Y19303428D01*
X45474000Y19208190D01*
X45521619Y19160571D01*
X45616857Y19112952D01*
X45759714Y19112952D01*
X45854952Y19160571D01*
X45902571Y19208190D01*
X45950190Y19303428D01*
X45950190Y19684381D01*
X46426381Y18684381D02*
X45426381Y18684381D01*
X45426381Y18017715D02*
X45426381Y17827238D01*
X45474000Y17732000D01*
X45569238Y17636762D01*
X45759714Y17589143D01*
X46093048Y17589143D01*
X46283524Y17636762D01*
X46378762Y17732000D01*
X46426381Y17827238D01*
X46426381Y18017715D01*
X46378762Y18112953D01*
X46283524Y18208191D01*
X46093048Y18255810D01*
X45759714Y18255810D01*
X45569238Y18208191D01*
X45474000Y18112953D01*
X45426381Y18017715D01*
X45426381Y17255810D02*
X45426381Y16636762D01*
X45807333Y16970096D01*
X45807333Y16827238D01*
X45854952Y16732000D01*
X45902571Y16684381D01*
X45997810Y16636762D01*
X46235905Y16636762D01*
X46331143Y16684381D01*
X46378762Y16732000D01*
X46426381Y16827238D01*
X46426381Y17112953D01*
X46378762Y17208191D01*
X46331143Y17255810D01*
X46521619Y16446286D02*
X46521619Y15684381D01*
X45426381Y15541524D02*
X45426381Y14874857D01*
X46426381Y15303429D01*
X44204000Y17620571D02*
X44156381Y17715809D01*
X44156381Y17858666D01*
X44204000Y18001524D01*
X44299238Y18096762D01*
X44394476Y18144381D01*
X44584952Y18192000D01*
X44727810Y18192000D01*
X44918286Y18144381D01*
X45013524Y18096762D01*
X45108762Y18001524D01*
X45156381Y17858666D01*
X45156381Y17763428D01*
X45108762Y17620571D01*
X45061143Y17572952D01*
X44727810Y17572952D01*
X44727810Y17763428D01*
X45156381Y17144381D02*
X44156381Y17144381D01*
X44156381Y16763428D01*
X44204000Y16668190D01*
X44251619Y16620571D01*
X44346857Y16572952D01*
X44489714Y16572952D01*
X44584952Y16620571D01*
X44632571Y16668190D01*
X44680190Y16763428D01*
X44680190Y17144381D01*
X45156381Y16144381D02*
X44156381Y16144381D01*
X44156381Y15477715D02*
X44156381Y15287238D01*
X44204000Y15192000D01*
X44299238Y15096762D01*
X44489714Y15049143D01*
X44823048Y15049143D01*
X45013524Y15096762D01*
X45108762Y15192000D01*
X45156381Y15287238D01*
X45156381Y15477715D01*
X45108762Y15572953D01*
X45013524Y15668191D01*
X44823048Y15715810D01*
X44489714Y15715810D01*
X44299238Y15668191D01*
X44204000Y15572953D01*
X44156381Y15477715D01*
X44156381Y14715810D02*
X44156381Y14096762D01*
X44537333Y14430096D01*
X44537333Y14287238D01*
X44584952Y14192000D01*
X44632571Y14144381D01*
X44727810Y14096762D01*
X44965905Y14096762D01*
X45061143Y14144381D01*
X45108762Y14192000D01*
X45156381Y14287238D01*
X45156381Y14572953D01*
X45108762Y14668191D01*
X45061143Y14715810D01*
X45251619Y13906286D02*
X45251619Y13144381D01*
X44156381Y12430095D02*
X44156381Y12906286D01*
X44632571Y12953905D01*
X44584952Y12906286D01*
X44537333Y12811048D01*
X44537333Y12572952D01*
X44584952Y12477714D01*
X44632571Y12430095D01*
X44727810Y12382476D01*
X44965905Y12382476D01*
X45061143Y12430095D01*
X45108762Y12477714D01*
X45156381Y12572952D01*
X45156381Y12811048D01*
X45108762Y12906286D01*
X45061143Y12953905D01*
X42934000Y20160571D02*
X42886381Y20255809D01*
X42886381Y20398666D01*
X42934000Y20541524D01*
X43029238Y20636762D01*
X43124476Y20684381D01*
X43314952Y20732000D01*
X43457810Y20732000D01*
X43648286Y20684381D01*
X43743524Y20636762D01*
X43838762Y20541524D01*
X43886381Y20398666D01*
X43886381Y20303428D01*
X43838762Y20160571D01*
X43791143Y20112952D01*
X43457810Y20112952D01*
X43457810Y20303428D01*
X43886381Y19684381D02*
X42886381Y19684381D01*
X42886381Y19303428D01*
X42934000Y19208190D01*
X42981619Y19160571D01*
X43076857Y19112952D01*
X43219714Y19112952D01*
X43314952Y19160571D01*
X43362571Y19208190D01*
X43410190Y19303428D01*
X43410190Y19684381D01*
X43886381Y18684381D02*
X42886381Y18684381D01*
X42886381Y18017715D02*
X42886381Y17827238D01*
X42934000Y17732000D01*
X43029238Y17636762D01*
X43219714Y17589143D01*
X43553048Y17589143D01*
X43743524Y17636762D01*
X43838762Y17732000D01*
X43886381Y17827238D01*
X43886381Y18017715D01*
X43838762Y18112953D01*
X43743524Y18208191D01*
X43553048Y18255810D01*
X43219714Y18255810D01*
X43029238Y18208191D01*
X42934000Y18112953D01*
X42886381Y18017715D01*
X42886381Y16684381D02*
X42886381Y17160572D01*
X43362571Y17208191D01*
X43314952Y17160572D01*
X43267333Y17065334D01*
X43267333Y16827238D01*
X43314952Y16732000D01*
X43362571Y16684381D01*
X43457810Y16636762D01*
X43695905Y16636762D01*
X43791143Y16684381D01*
X43838762Y16732000D01*
X43886381Y16827238D01*
X43886381Y17065334D01*
X43838762Y17160572D01*
X43791143Y17208191D01*
X43981619Y16446286D02*
X43981619Y15684381D01*
X43886381Y15398667D02*
X43886381Y15208191D01*
X43838762Y15112952D01*
X43791143Y15065333D01*
X43648286Y14970095D01*
X43457810Y14922476D01*
X43076857Y14922476D01*
X42981619Y14970095D01*
X42934000Y15017714D01*
X42886381Y15112952D01*
X42886381Y15303429D01*
X42934000Y15398667D01*
X42981619Y15446286D01*
X43076857Y15493905D01*
X43314952Y15493905D01*
X43410190Y15446286D01*
X43457810Y15398667D01*
X43505429Y15303429D01*
X43505429Y15112952D01*
X43457810Y15017714D01*
X43410190Y14970095D01*
X43314952Y14922476D01*
X41664000Y17620571D02*
X41616381Y17715809D01*
X41616381Y17858666D01*
X41664000Y18001524D01*
X41759238Y18096762D01*
X41854476Y18144381D01*
X42044952Y18192000D01*
X42187810Y18192000D01*
X42378286Y18144381D01*
X42473524Y18096762D01*
X42568762Y18001524D01*
X42616381Y17858666D01*
X42616381Y17763428D01*
X42568762Y17620571D01*
X42521143Y17572952D01*
X42187810Y17572952D01*
X42187810Y17763428D01*
X42616381Y17144381D02*
X41616381Y17144381D01*
X41616381Y16763428D01*
X41664000Y16668190D01*
X41711619Y16620571D01*
X41806857Y16572952D01*
X41949714Y16572952D01*
X42044952Y16620571D01*
X42092571Y16668190D01*
X42140190Y16763428D01*
X42140190Y17144381D01*
X42616381Y16144381D02*
X41616381Y16144381D01*
X41616381Y15477715D02*
X41616381Y15287238D01*
X41664000Y15192000D01*
X41759238Y15096762D01*
X41949714Y15049143D01*
X42283048Y15049143D01*
X42473524Y15096762D01*
X42568762Y15192000D01*
X42616381Y15287238D01*
X42616381Y15477715D01*
X42568762Y15572953D01*
X42473524Y15668191D01*
X42283048Y15715810D01*
X41949714Y15715810D01*
X41759238Y15668191D01*
X41664000Y15572953D01*
X41616381Y15477715D01*
X41616381Y14144381D02*
X41616381Y14620572D01*
X42092571Y14668191D01*
X42044952Y14620572D01*
X41997333Y14525334D01*
X41997333Y14287238D01*
X42044952Y14192000D01*
X42092571Y14144381D01*
X42187810Y14096762D01*
X42425905Y14096762D01*
X42521143Y14144381D01*
X42568762Y14192000D01*
X42616381Y14287238D01*
X42616381Y14525334D01*
X42568762Y14620572D01*
X42521143Y14668191D01*
X42711619Y13906286D02*
X42711619Y13144381D01*
X42044952Y12763429D02*
X41997333Y12858667D01*
X41949714Y12906286D01*
X41854476Y12953905D01*
X41806857Y12953905D01*
X41711619Y12906286D01*
X41664000Y12858667D01*
X41616381Y12763429D01*
X41616381Y12572952D01*
X41664000Y12477714D01*
X41711619Y12430095D01*
X41806857Y12382476D01*
X41854476Y12382476D01*
X41949714Y12430095D01*
X41997333Y12477714D01*
X42044952Y12572952D01*
X42044952Y12763429D01*
X42092571Y12858667D01*
X42140190Y12906286D01*
X42235429Y12953905D01*
X42425905Y12953905D01*
X42521143Y12906286D01*
X42568762Y12858667D01*
X42616381Y12763429D01*
X42616381Y12572952D01*
X42568762Y12477714D01*
X42521143Y12430095D01*
X42425905Y12382476D01*
X42235429Y12382476D01*
X42140190Y12430095D01*
X42092571Y12477714D01*
X42044952Y12572952D01*
X41346381Y16175905D02*
X40346381Y16175905D01*
X40441619Y15747334D02*
X40394000Y15699715D01*
X40346381Y15604477D01*
X40346381Y15366381D01*
X40394000Y15271143D01*
X40441619Y15223524D01*
X40536857Y15175905D01*
X40632095Y15175905D01*
X40774952Y15223524D01*
X41346381Y15794953D01*
X41346381Y15175905D01*
X41251143Y14175905D02*
X41298762Y14223524D01*
X41346381Y14366381D01*
X41346381Y14461619D01*
X41298762Y14604477D01*
X41203524Y14699715D01*
X41108286Y14747334D01*
X40917810Y14794953D01*
X40774952Y14794953D01*
X40584476Y14747334D01*
X40489238Y14699715D01*
X40394000Y14604477D01*
X40346381Y14461619D01*
X40346381Y14366381D01*
X40394000Y14223524D01*
X40441619Y14175905D01*
X41441619Y13985429D02*
X41441619Y13223524D01*
X41298762Y13033048D02*
X41346381Y12890191D01*
X41346381Y12652095D01*
X41298762Y12556857D01*
X41251143Y12509238D01*
X41155905Y12461619D01*
X41060667Y12461619D01*
X40965429Y12509238D01*
X40917810Y12556857D01*
X40870190Y12652095D01*
X40822571Y12842572D01*
X40774952Y12937810D01*
X40727333Y12985429D01*
X40632095Y13033048D01*
X40536857Y13033048D01*
X40441619Y12985429D01*
X40394000Y12937810D01*
X40346381Y12842572D01*
X40346381Y12604476D01*
X40394000Y12461619D01*
X41346381Y12033048D02*
X40346381Y12033048D01*
X40346381Y11794953D01*
X40394000Y11652095D01*
X40489238Y11556857D01*
X40584476Y11509238D01*
X40774952Y11461619D01*
X40917810Y11461619D01*
X41108286Y11509238D01*
X41203524Y11556857D01*
X41298762Y11652095D01*
X41346381Y11794953D01*
X41346381Y12033048D01*
X41060667Y11080667D02*
X41060667Y10604476D01*
X41346381Y11175905D02*
X40346381Y10842572D01*
X41346381Y10509238D01*
X40076381Y11302286D02*
X39076381Y11302286D01*
X39171619Y10873715D02*
X39124000Y10826096D01*
X39076381Y10730858D01*
X39076381Y10492762D01*
X39124000Y10397524D01*
X39171619Y10349905D01*
X39266857Y10302286D01*
X39362095Y10302286D01*
X39504952Y10349905D01*
X40076381Y10921334D01*
X40076381Y10302286D01*
X39981143Y9302286D02*
X40028762Y9349905D01*
X40076381Y9492762D01*
X40076381Y9588000D01*
X40028762Y9730858D01*
X39933524Y9826096D01*
X39838286Y9873715D01*
X39647810Y9921334D01*
X39504952Y9921334D01*
X39314476Y9873715D01*
X39219238Y9826096D01*
X39124000Y9730858D01*
X39076381Y9588000D01*
X39076381Y9492762D01*
X39124000Y9349905D01*
X39171619Y9302286D01*
X40171619Y9111810D02*
X40171619Y8349905D01*
X40028762Y8159429D02*
X40076381Y8016572D01*
X40076381Y7778476D01*
X40028762Y7683238D01*
X39981143Y7635619D01*
X39885905Y7588000D01*
X39790667Y7588000D01*
X39695429Y7635619D01*
X39647810Y7683238D01*
X39600190Y7778476D01*
X39552571Y7968953D01*
X39504952Y8064191D01*
X39457333Y8111810D01*
X39362095Y8159429D01*
X39266857Y8159429D01*
X39171619Y8111810D01*
X39124000Y8064191D01*
X39076381Y7968953D01*
X39076381Y7730857D01*
X39124000Y7588000D01*
X39981143Y6588000D02*
X40028762Y6635619D01*
X40076381Y6778476D01*
X40076381Y6873714D01*
X40028762Y7016572D01*
X39933524Y7111810D01*
X39838286Y7159429D01*
X39647810Y7207048D01*
X39504952Y7207048D01*
X39314476Y7159429D01*
X39219238Y7111810D01*
X39124000Y7016572D01*
X39076381Y6873714D01*
X39076381Y6778476D01*
X39124000Y6635619D01*
X39171619Y6588000D01*
X40076381Y5683238D02*
X40076381Y6159429D01*
X39076381Y6159429D01*
X37806381Y18271144D02*
X38615905Y18271144D01*
X38711143Y18223525D01*
X38758762Y18175906D01*
X38806381Y18080668D01*
X38806381Y17890191D01*
X38758762Y17794953D01*
X38711143Y17747334D01*
X38615905Y17699715D01*
X37806381Y17699715D01*
X38520667Y17271144D02*
X38520667Y16794953D01*
X38806381Y17366382D02*
X37806381Y17033049D01*
X38806381Y16699715D01*
X38806381Y15794953D02*
X38330190Y16128287D01*
X38806381Y16366382D02*
X37806381Y16366382D01*
X37806381Y15985429D01*
X37854000Y15890191D01*
X37901619Y15842572D01*
X37996857Y15794953D01*
X38139714Y15794953D01*
X38234952Y15842572D01*
X38282571Y15890191D01*
X38330190Y15985429D01*
X38330190Y16366382D01*
X37806381Y15509239D02*
X37806381Y14937810D01*
X38806381Y15223525D02*
X37806381Y15223525D01*
X37901619Y14652096D02*
X37854000Y14604477D01*
X37806381Y14509239D01*
X37806381Y14271143D01*
X37854000Y14175905D01*
X37901619Y14128286D01*
X37996857Y14080667D01*
X38092095Y14080667D01*
X38234952Y14128286D01*
X38806381Y14699715D01*
X38806381Y14080667D01*
X38901619Y13890191D02*
X38901619Y13128286D01*
X37806381Y13033048D02*
X37806381Y12461619D01*
X38806381Y12747334D02*
X37806381Y12747334D01*
X37806381Y12223524D02*
X38806381Y11556857D01*
X37806381Y11556857D02*
X38806381Y12223524D01*
X38806381Y11175905D02*
X37806381Y11175905D01*
X37806381Y10937810D01*
X37854000Y10794952D01*
X37949238Y10699714D01*
X38044476Y10652095D01*
X38234952Y10604476D01*
X38377810Y10604476D01*
X38568286Y10652095D01*
X38663524Y10699714D01*
X38758762Y10794952D01*
X38806381Y10937810D01*
X38806381Y11175905D01*
X36536381Y13683239D02*
X37345905Y13683239D01*
X37441143Y13635620D01*
X37488762Y13588001D01*
X37536381Y13492763D01*
X37536381Y13302286D01*
X37488762Y13207048D01*
X37441143Y13159429D01*
X37345905Y13111810D01*
X36536381Y13111810D01*
X37250667Y12683239D02*
X37250667Y12207048D01*
X37536381Y12778477D02*
X36536381Y12445144D01*
X37536381Y12111810D01*
X37536381Y11207048D02*
X37060190Y11540382D01*
X37536381Y11778477D02*
X36536381Y11778477D01*
X36536381Y11397524D01*
X36584000Y11302286D01*
X36631619Y11254667D01*
X36726857Y11207048D01*
X36869714Y11207048D01*
X36964952Y11254667D01*
X37012571Y11302286D01*
X37060190Y11397524D01*
X37060190Y11778477D01*
X36536381Y10921334D02*
X36536381Y10349905D01*
X37536381Y10635620D02*
X36536381Y10635620D01*
X36631619Y10064191D02*
X36584000Y10016572D01*
X36536381Y9921334D01*
X36536381Y9683238D01*
X36584000Y9588000D01*
X36631619Y9540381D01*
X36726857Y9492762D01*
X36822095Y9492762D01*
X36964952Y9540381D01*
X37536381Y10111810D01*
X37536381Y9492762D01*
X37631619Y9302286D02*
X37631619Y8540381D01*
X37536381Y7730857D02*
X37060190Y8064191D01*
X37536381Y8302286D02*
X36536381Y8302286D01*
X36536381Y7921333D01*
X36584000Y7826095D01*
X36631619Y7778476D01*
X36726857Y7730857D01*
X36869714Y7730857D01*
X36964952Y7778476D01*
X37012571Y7826095D01*
X37060190Y7921333D01*
X37060190Y8302286D01*
X36536381Y7397524D02*
X37536381Y6730857D01*
X36536381Y6730857D02*
X37536381Y7397524D01*
X37536381Y6349905D02*
X36536381Y6349905D01*
X36536381Y6111810D01*
X36584000Y5968952D01*
X36679238Y5873714D01*
X36774476Y5826095D01*
X36964952Y5778476D01*
X37107810Y5778476D01*
X37298286Y5826095D01*
X37393524Y5873714D01*
X37488762Y5968952D01*
X37536381Y6111810D01*
X37536381Y6349905D01*
X36218762Y17509239D02*
X36266381Y17366382D01*
X36266381Y17128286D01*
X36218762Y17033048D01*
X36171143Y16985429D01*
X36075905Y16937810D01*
X35980667Y16937810D01*
X35885429Y16985429D01*
X35837810Y17033048D01*
X35790190Y17128286D01*
X35742571Y17318763D01*
X35694952Y17414001D01*
X35647333Y17461620D01*
X35552095Y17509239D01*
X35456857Y17509239D01*
X35361619Y17461620D01*
X35314000Y17414001D01*
X35266381Y17318763D01*
X35266381Y17080667D01*
X35314000Y16937810D01*
X36218762Y16556858D02*
X36266381Y16414001D01*
X36266381Y16175905D01*
X36218762Y16080667D01*
X36171143Y16033048D01*
X36075905Y15985429D01*
X35980667Y15985429D01*
X35885429Y16033048D01*
X35837810Y16080667D01*
X35790190Y16175905D01*
X35742571Y16366382D01*
X35694952Y16461620D01*
X35647333Y16509239D01*
X35552095Y16556858D01*
X35456857Y16556858D01*
X35361619Y16509239D01*
X35314000Y16461620D01*
X35266381Y16366382D01*
X35266381Y16128286D01*
X35314000Y15985429D01*
X36266381Y15556858D02*
X35266381Y15556858D01*
X35266381Y15175905D01*
X35314000Y15080667D01*
X35361619Y15033048D01*
X35456857Y14985429D01*
X35599714Y14985429D01*
X35694952Y15033048D01*
X35742571Y15080667D01*
X35790190Y15175905D01*
X35790190Y15556858D01*
X36266381Y14033048D02*
X36266381Y14604477D01*
X36266381Y14318763D02*
X35266381Y14318763D01*
X35409238Y14414001D01*
X35504476Y14509239D01*
X35552095Y14604477D01*
X36361619Y13842572D02*
X36361619Y13080667D01*
X36218762Y12890191D02*
X36266381Y12747334D01*
X36266381Y12509238D01*
X36218762Y12414000D01*
X36171143Y12366381D01*
X36075905Y12318762D01*
X35980667Y12318762D01*
X35885429Y12366381D01*
X35837810Y12414000D01*
X35790190Y12509238D01*
X35742571Y12699715D01*
X35694952Y12794953D01*
X35647333Y12842572D01*
X35552095Y12890191D01*
X35456857Y12890191D01*
X35361619Y12842572D01*
X35314000Y12794953D01*
X35266381Y12699715D01*
X35266381Y12461619D01*
X35314000Y12318762D01*
X35742571Y11890191D02*
X35742571Y11556857D01*
X36266381Y11414000D02*
X36266381Y11890191D01*
X35266381Y11890191D01*
X35266381Y11414000D01*
X36266381Y10509238D02*
X36266381Y10985429D01*
X35266381Y10985429D01*
X34948762Y13635619D02*
X34996381Y13492762D01*
X34996381Y13254666D01*
X34948762Y13159428D01*
X34901143Y13111809D01*
X34805905Y13064190D01*
X34710667Y13064190D01*
X34615429Y13111809D01*
X34567810Y13159428D01*
X34520190Y13254666D01*
X34472571Y13445143D01*
X34424952Y13540381D01*
X34377333Y13588000D01*
X34282095Y13635619D01*
X34186857Y13635619D01*
X34091619Y13588000D01*
X34044000Y13540381D01*
X33996381Y13445143D01*
X33996381Y13207047D01*
X34044000Y13064190D01*
X34948762Y12683238D02*
X34996381Y12540381D01*
X34996381Y12302285D01*
X34948762Y12207047D01*
X34901143Y12159428D01*
X34805905Y12111809D01*
X34710667Y12111809D01*
X34615429Y12159428D01*
X34567810Y12207047D01*
X34520190Y12302285D01*
X34472571Y12492762D01*
X34424952Y12588000D01*
X34377333Y12635619D01*
X34282095Y12683238D01*
X34186857Y12683238D01*
X34091619Y12635619D01*
X34044000Y12588000D01*
X33996381Y12492762D01*
X33996381Y12254666D01*
X34044000Y12111809D01*
X34996381Y11683238D02*
X33996381Y11683238D01*
X33996381Y11302285D01*
X34044000Y11207047D01*
X34091619Y11159428D01*
X34186857Y11111809D01*
X34329714Y11111809D01*
X34424952Y11159428D01*
X34472571Y11207047D01*
X34520190Y11302285D01*
X34520190Y11683238D01*
X34996381Y10159428D02*
X34996381Y10730857D01*
X34996381Y10445143D02*
X33996381Y10445143D01*
X34139238Y10540381D01*
X34234476Y10635619D01*
X34282095Y10730857D01*
X35091619Y9968952D02*
X35091619Y9207047D01*
X34996381Y8968952D02*
X33996381Y8968952D01*
X34710667Y8635618D01*
X33996381Y8302285D01*
X34996381Y8302285D01*
X34996381Y7826095D02*
X33996381Y7826095D01*
X34948762Y7397524D02*
X34996381Y7254667D01*
X34996381Y7016571D01*
X34948762Y6921333D01*
X34901143Y6873714D01*
X34805905Y6826095D01*
X34710667Y6826095D01*
X34615429Y6873714D01*
X34567810Y6921333D01*
X34520190Y7016571D01*
X34472571Y7207048D01*
X34424952Y7302286D01*
X34377333Y7349905D01*
X34282095Y7397524D01*
X34186857Y7397524D01*
X34091619Y7349905D01*
X34044000Y7302286D01*
X33996381Y7207048D01*
X33996381Y6968952D01*
X34044000Y6826095D01*
X33996381Y6207048D02*
X33996381Y6016571D01*
X34044000Y5921333D01*
X34139238Y5826095D01*
X34329714Y5778476D01*
X34663048Y5778476D01*
X34853524Y5826095D01*
X34948762Y5921333D01*
X34996381Y6016571D01*
X34996381Y6207048D01*
X34948762Y6302286D01*
X34853524Y6397524D01*
X34663048Y6445143D01*
X34329714Y6445143D01*
X34139238Y6397524D01*
X34044000Y6302286D01*
X33996381Y6207048D01*
X33678762Y18461619D02*
X33726381Y18318762D01*
X33726381Y18080666D01*
X33678762Y17985428D01*
X33631143Y17937809D01*
X33535905Y17890190D01*
X33440667Y17890190D01*
X33345429Y17937809D01*
X33297810Y17985428D01*
X33250190Y18080666D01*
X33202571Y18271143D01*
X33154952Y18366381D01*
X33107333Y18414000D01*
X33012095Y18461619D01*
X32916857Y18461619D01*
X32821619Y18414000D01*
X32774000Y18366381D01*
X32726381Y18271143D01*
X32726381Y18033047D01*
X32774000Y17890190D01*
X33678762Y17509238D02*
X33726381Y17366381D01*
X33726381Y17128285D01*
X33678762Y17033047D01*
X33631143Y16985428D01*
X33535905Y16937809D01*
X33440667Y16937809D01*
X33345429Y16985428D01*
X33297810Y17033047D01*
X33250190Y17128285D01*
X33202571Y17318762D01*
X33154952Y17414000D01*
X33107333Y17461619D01*
X33012095Y17509238D01*
X32916857Y17509238D01*
X32821619Y17461619D01*
X32774000Y17414000D01*
X32726381Y17318762D01*
X32726381Y17080666D01*
X32774000Y16937809D01*
X33726381Y16509238D02*
X32726381Y16509238D01*
X32726381Y16128285D01*
X32774000Y16033047D01*
X32821619Y15985428D01*
X32916857Y15937809D01*
X33059714Y15937809D01*
X33154952Y15985428D01*
X33202571Y16033047D01*
X33250190Y16128285D01*
X33250190Y16509238D01*
X33726381Y14985428D02*
X33726381Y15556857D01*
X33726381Y15271143D02*
X32726381Y15271143D01*
X32869238Y15366381D01*
X32964476Y15461619D01*
X33012095Y15556857D01*
X33821619Y14794952D02*
X33821619Y14033047D01*
X33726381Y13794952D02*
X32726381Y13794952D01*
X33440667Y13461618D01*
X32726381Y13128285D01*
X33726381Y13128285D01*
X32726381Y12461619D02*
X32726381Y12271142D01*
X32774000Y12175904D01*
X32869238Y12080666D01*
X33059714Y12033047D01*
X33393048Y12033047D01*
X33583524Y12080666D01*
X33678762Y12175904D01*
X33726381Y12271142D01*
X33726381Y12461619D01*
X33678762Y12556857D01*
X33583524Y12652095D01*
X33393048Y12699714D01*
X33059714Y12699714D01*
X32869238Y12652095D01*
X32774000Y12556857D01*
X32726381Y12461619D01*
X33678762Y11652095D02*
X33726381Y11509238D01*
X33726381Y11271142D01*
X33678762Y11175904D01*
X33631143Y11128285D01*
X33535905Y11080666D01*
X33440667Y11080666D01*
X33345429Y11128285D01*
X33297810Y11175904D01*
X33250190Y11271142D01*
X33202571Y11461619D01*
X33154952Y11556857D01*
X33107333Y11604476D01*
X33012095Y11652095D01*
X32916857Y11652095D01*
X32821619Y11604476D01*
X32774000Y11556857D01*
X32726381Y11461619D01*
X32726381Y11223523D01*
X32774000Y11080666D01*
X33726381Y10652095D02*
X32726381Y10652095D01*
X32408762Y12968953D02*
X32456381Y12826096D01*
X32456381Y12588000D01*
X32408762Y12492762D01*
X32361143Y12445143D01*
X32265905Y12397524D01*
X32170667Y12397524D01*
X32075429Y12445143D01*
X32027810Y12492762D01*
X31980190Y12588000D01*
X31932571Y12778477D01*
X31884952Y12873715D01*
X31837333Y12921334D01*
X31742095Y12968953D01*
X31646857Y12968953D01*
X31551619Y12921334D01*
X31504000Y12873715D01*
X31456381Y12778477D01*
X31456381Y12540381D01*
X31504000Y12397524D01*
X32408762Y12016572D02*
X32456381Y11873715D01*
X32456381Y11635619D01*
X32408762Y11540381D01*
X32361143Y11492762D01*
X32265905Y11445143D01*
X32170667Y11445143D01*
X32075429Y11492762D01*
X32027810Y11540381D01*
X31980190Y11635619D01*
X31932571Y11826096D01*
X31884952Y11921334D01*
X31837333Y11968953D01*
X31742095Y12016572D01*
X31646857Y12016572D01*
X31551619Y11968953D01*
X31504000Y11921334D01*
X31456381Y11826096D01*
X31456381Y11588000D01*
X31504000Y11445143D01*
X32456381Y11016572D02*
X31456381Y11016572D01*
X31456381Y10635619D01*
X31504000Y10540381D01*
X31551619Y10492762D01*
X31646857Y10445143D01*
X31789714Y10445143D01*
X31884952Y10492762D01*
X31932571Y10540381D01*
X31980190Y10635619D01*
X31980190Y11016572D01*
X32456381Y9492762D02*
X32456381Y10064191D01*
X32456381Y9778477D02*
X31456381Y9778477D01*
X31599238Y9873715D01*
X31694476Y9968953D01*
X31742095Y10064191D01*
X32551619Y9302286D02*
X32551619Y8540381D01*
X32408762Y8349905D02*
X32456381Y8207048D01*
X32456381Y7968952D01*
X32408762Y7873714D01*
X32361143Y7826095D01*
X32265905Y7778476D01*
X32170667Y7778476D01*
X32075429Y7826095D01*
X32027810Y7873714D01*
X31980190Y7968952D01*
X31932571Y8159429D01*
X31884952Y8254667D01*
X31837333Y8302286D01*
X31742095Y8349905D01*
X31646857Y8349905D01*
X31551619Y8302286D01*
X31504000Y8254667D01*
X31456381Y8159429D01*
X31456381Y7921333D01*
X31504000Y7778476D01*
X32361143Y6778476D02*
X32408762Y6826095D01*
X32456381Y6968952D01*
X32456381Y7064190D01*
X32408762Y7207048D01*
X32313524Y7302286D01*
X32218286Y7349905D01*
X32027810Y7397524D01*
X31884952Y7397524D01*
X31694476Y7349905D01*
X31599238Y7302286D01*
X31504000Y7207048D01*
X31456381Y7064190D01*
X31456381Y6968952D01*
X31504000Y6826095D01*
X31551619Y6778476D01*
X32456381Y6349905D02*
X31456381Y6349905D01*
X32456381Y5778476D02*
X31884952Y6207048D01*
X31456381Y5778476D02*
X32027810Y6349905D01*
X30131619Y17852095D02*
X31231619Y17485428D01*
X30131619Y17118762D01*
X31231619Y16752095D02*
X30131619Y16752095D01*
X30131619Y16018761D02*
X30131619Y15809238D01*
X30184000Y15704476D01*
X30288762Y15599714D01*
X30498286Y15547333D01*
X30864952Y15547333D01*
X31074476Y15599714D01*
X31179238Y15704476D01*
X31231619Y15809238D01*
X31231619Y16018761D01*
X31179238Y16123523D01*
X31074476Y16228285D01*
X30864952Y16280666D01*
X30498286Y16280666D01*
X30288762Y16228285D01*
X30184000Y16123523D01*
X30131619Y16018761D01*
X31336381Y15337809D02*
X31336381Y14499714D01*
X30131619Y14342571D02*
X30131619Y13661619D01*
X30550667Y14028285D01*
X30550667Y13871143D01*
X30603048Y13766381D01*
X30655429Y13714000D01*
X30760190Y13661619D01*
X31022095Y13661619D01*
X31126857Y13714000D01*
X31179238Y13766381D01*
X31231619Y13871143D01*
X31231619Y14185428D01*
X31179238Y14290190D01*
X31126857Y14342571D01*
X30131619Y13347333D02*
X31231619Y12980666D01*
X30131619Y12614000D01*
X30131619Y12352095D02*
X30131619Y11671143D01*
X30550667Y12037809D01*
X30550667Y11880667D01*
X30603048Y11775905D01*
X30655429Y11723524D01*
X30760190Y11671143D01*
X31022095Y11671143D01*
X31126857Y11723524D01*
X31179238Y11775905D01*
X31231619Y11880667D01*
X31231619Y12194952D01*
X31179238Y12299714D01*
X31126857Y12352095D01*
X30131619Y11304476D02*
X30131619Y10571143D01*
X31231619Y11304476D01*
X31231619Y10571143D01*
D12*
X1016000Y23368000D02*
X1016000Y20320000D01*
D13*
X7306571Y22665429D02*
X7306571Y22379715D01*
X7378000Y22236857D01*
X7520857Y22094000D01*
X7806571Y22022572D01*
X8306571Y22022572D01*
X8592286Y22094000D01*
X8735143Y22236857D01*
X8806571Y22379715D01*
X8806571Y22665429D01*
X8735143Y22808286D01*
X8592286Y22951143D01*
X8306571Y23022572D01*
X7806571Y23022572D01*
X7520857Y22951143D01*
X7378000Y22808286D01*
X7306571Y22665429D01*
X8020857Y21379714D02*
X8020857Y20879714D01*
X8806571Y20665428D02*
X8806571Y21379714D01*
X7306571Y21379714D01*
X7306571Y20665428D01*
X2964571Y22129714D02*
X2964571Y22986857D01*
X2964571Y22558285D02*
X1464571Y22558285D01*
X1678857Y22701142D01*
X1821714Y22844000D01*
X1893143Y22986857D01*
X1607429Y21558286D02*
X1536000Y21486857D01*
X1464571Y21344000D01*
X1464571Y20986857D01*
X1536000Y20844000D01*
X1607429Y20772571D01*
X1750286Y20701143D01*
X1893143Y20701143D01*
X2107429Y20772571D01*
X2964571Y21629714D01*
X2964571Y20701143D01*
D12*
X11684000Y49276000D02*
X19304000Y49276000D01*
X11684000Y49276000D02*
X11684000Y48768000D01*
X6604000Y49276000D02*
X11684000Y49276000D01*
X6604000Y49530000D02*
X6604000Y48768000D01*
X4064000Y49530000D02*
X6604000Y49530000D01*
X4064000Y48768000D02*
X4064000Y49530000D01*
D13*
X41668000Y39497143D02*
X41596571Y39640000D01*
X41596571Y39854286D01*
X41668000Y40068571D01*
X41810857Y40211429D01*
X41953714Y40282857D01*
X42239429Y40354286D01*
X42453714Y40354286D01*
X42739429Y40282857D01*
X42882286Y40211429D01*
X43025143Y40068571D01*
X43096571Y39854286D01*
X43096571Y39711429D01*
X43025143Y39497143D01*
X42953714Y39425714D01*
X42453714Y39425714D01*
X42453714Y39711429D01*
X43096571Y38782857D02*
X41596571Y38782857D01*
X43096571Y37925714D01*
X41596571Y37925714D01*
X43096571Y37211428D02*
X41596571Y37211428D01*
X41596571Y36854285D01*
X41668000Y36640000D01*
X41810857Y36497142D01*
X41953714Y36425714D01*
X42239429Y36354285D01*
X42453714Y36354285D01*
X42739429Y36425714D01*
X42882286Y36497142D01*
X43025143Y36640000D01*
X43096571Y36854285D01*
X43096571Y37211428D01*
D12*
X41910000Y41910000D02*
X41910000Y42164000D01*
X41910000Y41656000D02*
X41910000Y41910000D01*
X42418000Y41656000D02*
X41910000Y41656000D01*
X42164000Y41402000D02*
X42418000Y41656000D01*
X42164000Y41656000D02*
X42164000Y41402000D01*
X42418000Y41910000D02*
X42164000Y41656000D01*
X42418000Y42164000D02*
X42418000Y41910000D01*
X42164000Y41656000D02*
X42418000Y42164000D01*
X41910000Y42164000D02*
X42164000Y41656000D01*
X42164000Y41148000D02*
X41656000Y42164000D01*
X42672000Y42164000D02*
X42164000Y41148000D01*
X41656000Y42164000D02*
X42672000Y42164000D01*
X42164000Y49276000D02*
X42164000Y41656000D01*
X44704000Y49276000D02*
X42164000Y49276000D01*
X39624000Y49276000D02*
X44704000Y49276000D01*
X72644000Y49530000D02*
X72644000Y48768000D01*
X44704000Y49530000D02*
X72644000Y49530000D01*
X44704000Y48768000D02*
X44704000Y49530000D01*
X21844000Y49276000D02*
X26924000Y49276000D01*
X39624000Y49530000D02*
X39624000Y48768000D01*
X26924000Y49530000D02*
X39624000Y49530000D01*
X26924000Y48768000D02*
X26924000Y49530000D01*
X21844000Y49530000D02*
X21844000Y48768000D01*
X19304000Y49530000D02*
X21844000Y49530000D01*
X19304000Y48768000D02*
X19304000Y49530000D01*
D11*
X54418571Y31281619D02*
X54418571Y30567333D01*
X54466191Y30424476D01*
X54561429Y30329238D01*
X54704286Y30281619D01*
X54799524Y30281619D01*
X54037619Y31281619D02*
X53370952Y31281619D01*
X53799524Y30281619D01*
X53228095Y30186381D02*
X52466190Y30186381D01*
X52085238Y30853048D02*
X52180476Y30900667D01*
X52228095Y30948286D01*
X52275714Y31043524D01*
X52275714Y31091143D01*
X52228095Y31186381D01*
X52180476Y31234000D01*
X52085238Y31281619D01*
X51894761Y31281619D01*
X51799523Y31234000D01*
X51751904Y31186381D01*
X51704285Y31091143D01*
X51704285Y31043524D01*
X51751904Y30948286D01*
X51799523Y30900667D01*
X51894761Y30853048D01*
X52085238Y30853048D01*
X52180476Y30805429D01*
X52228095Y30757810D01*
X52275714Y30662571D01*
X52275714Y30472095D01*
X52228095Y30376857D01*
X52180476Y30329238D01*
X52085238Y30281619D01*
X51894761Y30281619D01*
X51799523Y30329238D01*
X51751904Y30376857D01*
X51704285Y30472095D01*
X51704285Y30662571D01*
X51751904Y30757810D01*
X51799523Y30805429D01*
X51894761Y30853048D01*
X51275714Y30662571D02*
X50513809Y30662571D01*
X50132857Y31281619D02*
X49466190Y31281619D01*
X49894762Y30281619D01*
X47370952Y30281619D02*
X47370952Y31281619D01*
X46942381Y30329238D02*
X46799524Y30281619D01*
X46561428Y30281619D01*
X46466190Y30329238D01*
X46418571Y30376857D01*
X46370952Y30472095D01*
X46370952Y30567333D01*
X46418571Y30662571D01*
X46466190Y30710190D01*
X46561428Y30757810D01*
X46751905Y30805429D01*
X46847143Y30853048D01*
X46894762Y30900667D01*
X46942381Y30995905D01*
X46942381Y31091143D01*
X46894762Y31186381D01*
X46847143Y31234000D01*
X46751905Y31281619D01*
X46513809Y31281619D01*
X46370952Y31234000D01*
X45942381Y30281619D02*
X45942381Y31281619D01*
X45561428Y31281619D01*
X45466190Y31234000D01*
X45418571Y31186381D01*
X45370952Y31091143D01*
X45370952Y30948286D01*
X45418571Y30853048D01*
X45466190Y30805429D01*
X45561428Y30757810D01*
X45942381Y30757810D01*
X45180476Y30186381D02*
X44418571Y30186381D01*
X43609047Y30376857D02*
X43656666Y30329238D01*
X43799523Y30281619D01*
X43894761Y30281619D01*
X44037619Y30329238D01*
X44132857Y30424476D01*
X44180476Y30519714D01*
X44228095Y30710190D01*
X44228095Y30853048D01*
X44180476Y31043524D01*
X44132857Y31138762D01*
X44037619Y31234000D01*
X43894761Y31281619D01*
X43799523Y31281619D01*
X43656666Y31234000D01*
X43609047Y31186381D01*
X43323333Y31281619D02*
X42751904Y31281619D01*
X43037619Y30281619D02*
X43037619Y31281619D01*
X41942380Y30281619D02*
X42418571Y30281619D01*
X42418571Y31281619D01*
X41847142Y30186381D02*
X41085237Y30186381D01*
X40656666Y31281619D02*
X40466189Y31281619D01*
X40370951Y31234000D01*
X40275713Y31138762D01*
X40228094Y30948286D01*
X40228094Y30614952D01*
X40275713Y30424476D01*
X40370951Y30329238D01*
X40466189Y30281619D01*
X40656666Y30281619D01*
X40751904Y30329238D01*
X40847142Y30424476D01*
X40894761Y30614952D01*
X40894761Y30948286D01*
X40847142Y31138762D01*
X40751904Y31234000D01*
X40656666Y31281619D01*
X39799523Y30281619D02*
X39799523Y31281619D01*
X39561428Y31281619D01*
X39418570Y31234000D01*
X39323332Y31138762D01*
X39275713Y31043524D01*
X39228094Y30853048D01*
X39228094Y30710190D01*
X39275713Y30519714D01*
X39323332Y30424476D01*
X39418570Y30329238D01*
X39561428Y30281619D01*
X39799523Y30281619D01*
D14*
X71932095Y13648381D02*
X73232095Y13215048D01*
X71932095Y12781715D01*
X73232095Y12348381D02*
X71932095Y12348381D01*
X71932095Y11481714D02*
X71932095Y11234095D01*
X71994000Y11110286D01*
X72117810Y10986476D01*
X72365429Y10924571D01*
X72798762Y10924571D01*
X73046381Y10986476D01*
X73170190Y11110286D01*
X73232095Y11234095D01*
X73232095Y11481714D01*
X73170190Y11605524D01*
X73046381Y11729333D01*
X72798762Y11791238D01*
X72365429Y11791238D01*
X72117810Y11729333D01*
X71994000Y11605524D01*
X71932095Y11481714D01*
X73355905Y10676952D02*
X73355905Y9686476D01*
X71932095Y9500762D02*
X71932095Y8696000D01*
X72427333Y9129333D01*
X72427333Y8943619D01*
X72489238Y8819809D01*
X72551143Y8757905D01*
X72674952Y8696000D01*
X72984476Y8696000D01*
X73108286Y8757905D01*
X73170190Y8819809D01*
X73232095Y8943619D01*
X73232095Y9315047D01*
X73170190Y9438857D01*
X73108286Y9500762D01*
X71932095Y8324571D02*
X73232095Y7891238D01*
X71932095Y7457905D01*
X71932095Y7148381D02*
X71932095Y6343619D01*
X72427333Y6776952D01*
X72427333Y6591238D01*
X72489238Y6467428D01*
X72551143Y6405524D01*
X72674952Y6343619D01*
X72984476Y6343619D01*
X73108286Y6405524D01*
X73170190Y6467428D01*
X73232095Y6591238D01*
X73232095Y6962666D01*
X73170190Y7086476D01*
X73108286Y7148381D01*
X71311238Y18030952D02*
X71363619Y17873809D01*
X71363619Y17611905D01*
X71311238Y17507143D01*
X71258857Y17454762D01*
X71154095Y17402381D01*
X71049333Y17402381D01*
X70944571Y17454762D01*
X70892190Y17507143D01*
X70839810Y17611905D01*
X70787429Y17821428D01*
X70735048Y17926190D01*
X70682667Y17978571D01*
X70577905Y18030952D01*
X70473143Y18030952D01*
X70368381Y17978571D01*
X70316000Y17926190D01*
X70263619Y17821428D01*
X70263619Y17559524D01*
X70316000Y17402381D01*
X70316000Y16354762D02*
X70263619Y16459524D01*
X70263619Y16616667D01*
X70316000Y16773809D01*
X70420762Y16878571D01*
X70525524Y16930952D01*
X70735048Y16983333D01*
X70892190Y16983333D01*
X71101714Y16930952D01*
X71206476Y16878571D01*
X71311238Y16773809D01*
X71363619Y16616667D01*
X71363619Y16511905D01*
X71311238Y16354762D01*
X71258857Y16302381D01*
X70892190Y16302381D01*
X70892190Y16511905D01*
X71363619Y15830952D02*
X70263619Y15830952D01*
X70263619Y15411905D01*
X70316000Y15307143D01*
X70368381Y15254762D01*
X70473143Y15202381D01*
X70630286Y15202381D01*
X70735048Y15254762D01*
X70787429Y15307143D01*
X70839810Y15411905D01*
X70839810Y15830952D01*
X71363619Y14730952D02*
X70263619Y14730952D01*
X70263619Y13997618D02*
X70263619Y13788095D01*
X70316000Y13683333D01*
X70420762Y13578571D01*
X70630286Y13526190D01*
X70996952Y13526190D01*
X71206476Y13578571D01*
X71311238Y13683333D01*
X71363619Y13788095D01*
X71363619Y13997618D01*
X71311238Y14102380D01*
X71206476Y14207142D01*
X70996952Y14259523D01*
X70630286Y14259523D01*
X70420762Y14207142D01*
X70316000Y14102380D01*
X70263619Y13997618D01*
X71468381Y13316666D02*
X71468381Y12478571D01*
X71363619Y11640476D02*
X71363619Y12269047D01*
X71363619Y11954761D02*
X70263619Y11954761D01*
X70420762Y12059523D01*
X70525524Y12164285D01*
X70577905Y12269047D01*
X70263619Y11273809D02*
X70263619Y10592857D01*
X70682667Y10959523D01*
X70682667Y10802381D01*
X70735048Y10697619D01*
X70787429Y10645238D01*
X70892190Y10592857D01*
X71154095Y10592857D01*
X71258857Y10645238D01*
X71311238Y10697619D01*
X71363619Y10802381D01*
X71363619Y11116666D01*
X71311238Y11221428D01*
X71258857Y11273809D01*
X71468381Y10383333D02*
X71468381Y9545238D01*
X70787429Y8916667D02*
X70839810Y8759524D01*
X70892190Y8707143D01*
X70996952Y8654762D01*
X71154095Y8654762D01*
X71258857Y8707143D01*
X71311238Y8759524D01*
X71363619Y8864286D01*
X71363619Y9283333D01*
X70263619Y9283333D01*
X70263619Y8916667D01*
X70316000Y8811905D01*
X70368381Y8759524D01*
X70473143Y8707143D01*
X70577905Y8707143D01*
X70682667Y8759524D01*
X70735048Y8811905D01*
X70787429Y8916667D01*
X70787429Y9283333D01*
X70263619Y8183333D02*
X71154095Y8183333D01*
X71258857Y8130952D01*
X71311238Y8078571D01*
X71363619Y7973809D01*
X71363619Y7764286D01*
X71311238Y7659524D01*
X71258857Y7607143D01*
X71154095Y7554762D01*
X70263619Y7554762D01*
X70787429Y6664286D02*
X70787429Y7030952D01*
X71363619Y7030952D02*
X70263619Y7030952D01*
X70263619Y6507143D01*
D13*
X68171143Y20850000D02*
X68242571Y20635714D01*
X68242571Y20278571D01*
X68171143Y20135714D01*
X68099714Y20064285D01*
X67956857Y19992857D01*
X67814000Y19992857D01*
X67671143Y20064285D01*
X67599714Y20135714D01*
X67528286Y20278571D01*
X67456857Y20564285D01*
X67385429Y20707143D01*
X67314000Y20778571D01*
X67171143Y20850000D01*
X67028286Y20850000D01*
X66885429Y20778571D01*
X66814000Y20707143D01*
X66742571Y20564285D01*
X66742571Y20207143D01*
X66814000Y19992857D01*
X66814000Y18564286D02*
X66742571Y18707143D01*
X66742571Y18921429D01*
X66814000Y19135714D01*
X66956857Y19278572D01*
X67099714Y19350000D01*
X67385429Y19421429D01*
X67599714Y19421429D01*
X67885429Y19350000D01*
X68028286Y19278572D01*
X68171143Y19135714D01*
X68242571Y18921429D01*
X68242571Y18778572D01*
X68171143Y18564286D01*
X68099714Y18492857D01*
X67599714Y18492857D01*
X67599714Y18778572D01*
X68242571Y17850000D02*
X66742571Y17850000D01*
X66742571Y17278572D01*
X66814000Y17135714D01*
X66885429Y17064286D01*
X67028286Y16992857D01*
X67242571Y16992857D01*
X67385429Y17064286D01*
X67456857Y17135714D01*
X67528286Y17278572D01*
X67528286Y17850000D01*
X68242571Y16350000D02*
X66742571Y16350000D01*
X66742571Y15350000D02*
X66742571Y15064286D01*
X66814000Y14921428D01*
X66956857Y14778571D01*
X67242571Y14707143D01*
X67742571Y14707143D01*
X68028286Y14778571D01*
X68171143Y14921428D01*
X68242571Y15064286D01*
X68242571Y15350000D01*
X68171143Y15492857D01*
X68028286Y15635714D01*
X67742571Y15707143D01*
X67242571Y15707143D01*
X66956857Y15635714D01*
X66814000Y15492857D01*
X66742571Y15350000D01*
X68385429Y14421428D02*
X68385429Y13278571D01*
X68242571Y12850000D02*
X68242571Y12564285D01*
X68171143Y12421428D01*
X68099714Y12350000D01*
X67885429Y12207142D01*
X67599714Y12135714D01*
X67028286Y12135714D01*
X66885429Y12207142D01*
X66814000Y12278571D01*
X66742571Y12421428D01*
X66742571Y12707142D01*
X66814000Y12850000D01*
X66885429Y12921428D01*
X67028286Y12992857D01*
X67385429Y12992857D01*
X67528286Y12921428D01*
X67599714Y12850000D01*
X67671143Y12707142D01*
X67671143Y12421428D01*
X67599714Y12278571D01*
X67528286Y12207142D01*
X67385429Y12135714D01*
X68385429Y11850000D02*
X68385429Y10707143D01*
X67456857Y9850000D02*
X67528286Y9635714D01*
X67599714Y9564286D01*
X67742571Y9492857D01*
X67956857Y9492857D01*
X68099714Y9564286D01*
X68171143Y9635714D01*
X68242571Y9778572D01*
X68242571Y10350000D01*
X66742571Y10350000D01*
X66742571Y9850000D01*
X66814000Y9707143D01*
X66885429Y9635714D01*
X67028286Y9564286D01*
X67171143Y9564286D01*
X67314000Y9635714D01*
X67385429Y9707143D01*
X67456857Y9850000D01*
X67456857Y10350000D01*
X66742571Y8850000D02*
X67956857Y8850000D01*
X68099714Y8778572D01*
X68171143Y8707143D01*
X68242571Y8564286D01*
X68242571Y8278572D01*
X68171143Y8135714D01*
X68099714Y8064286D01*
X67956857Y7992857D01*
X66742571Y7992857D01*
X67456857Y6778571D02*
X67456857Y7278571D01*
X68242571Y7278571D02*
X66742571Y7278571D01*
X66742571Y6564285D01*
X65702571Y13850000D02*
X64202571Y13850000D01*
X64202571Y13492857D01*
X64274000Y13278572D01*
X64416857Y13135714D01*
X64559714Y13064286D01*
X64845429Y12992857D01*
X65059714Y12992857D01*
X65345429Y13064286D01*
X65488286Y13135714D01*
X65631143Y13278572D01*
X65702571Y13492857D01*
X65702571Y13850000D01*
X65702571Y12350000D02*
X64202571Y12350000D01*
X65702571Y10778571D02*
X64988286Y11278571D01*
X65702571Y11635714D02*
X64202571Y11635714D01*
X64202571Y11064286D01*
X64274000Y10921428D01*
X64345429Y10850000D01*
X64488286Y10778571D01*
X64702571Y10778571D01*
X64845429Y10850000D01*
X64916857Y10921428D01*
X64988286Y11064286D01*
X64988286Y11635714D01*
X65845429Y10492857D02*
X65845429Y9350000D01*
X64202571Y8992857D02*
X65416857Y8992857D01*
X65559714Y8921429D01*
X65631143Y8850000D01*
X65702571Y8707143D01*
X65702571Y8421429D01*
X65631143Y8278571D01*
X65559714Y8207143D01*
X65416857Y8135714D01*
X64202571Y8135714D01*
X64202571Y7564285D02*
X64202571Y6635714D01*
X64774000Y7135714D01*
X64774000Y6921428D01*
X64845429Y6778571D01*
X64916857Y6707142D01*
X65059714Y6635714D01*
X65416857Y6635714D01*
X65559714Y6707142D01*
X65631143Y6778571D01*
X65702571Y6921428D01*
X65702571Y7350000D01*
X65631143Y7492857D01*
X65559714Y7564285D01*
X63162571Y13850000D02*
X61662571Y13850000D01*
X61662571Y13492857D01*
X61734000Y13278572D01*
X61876857Y13135714D01*
X62019714Y13064286D01*
X62305429Y12992857D01*
X62519714Y12992857D01*
X62805429Y13064286D01*
X62948286Y13135714D01*
X63091143Y13278572D01*
X63162571Y13492857D01*
X63162571Y13850000D01*
X63162571Y12350000D02*
X61662571Y12350000D01*
X63162571Y10778571D02*
X62448286Y11278571D01*
X63162571Y11635714D02*
X61662571Y11635714D01*
X61662571Y11064286D01*
X61734000Y10921428D01*
X61805429Y10850000D01*
X61948286Y10778571D01*
X62162571Y10778571D01*
X62305429Y10850000D01*
X62376857Y10921428D01*
X62448286Y11064286D01*
X62448286Y11635714D01*
X63305429Y10492857D02*
X63305429Y9350000D01*
X61662571Y8992857D02*
X62876857Y8992857D01*
X63019714Y8921429D01*
X63091143Y8850000D01*
X63162571Y8707143D01*
X63162571Y8421429D01*
X63091143Y8278571D01*
X63019714Y8207143D01*
X62876857Y8135714D01*
X61662571Y8135714D01*
X62162571Y6778571D02*
X63162571Y6778571D01*
X61591143Y7135714D02*
X62662571Y7492857D01*
X62662571Y6564285D01*
X59836857Y17135713D02*
X59836857Y16635713D01*
X60622571Y16421427D02*
X60622571Y17135713D01*
X59122571Y17135713D01*
X59122571Y16421427D01*
X59122571Y15921427D02*
X60622571Y14921427D01*
X59122571Y14921427D02*
X60622571Y15921427D01*
X60622571Y14349999D02*
X59122571Y14349999D01*
X59122571Y13778571D01*
X59194000Y13635713D01*
X59265429Y13564285D01*
X59408286Y13492856D01*
X59622571Y13492856D01*
X59765429Y13564285D01*
X59836857Y13635713D01*
X59908286Y13778571D01*
X59908286Y14349999D01*
X60765429Y13207142D02*
X60765429Y12064285D01*
X60194000Y11778571D02*
X60194000Y11064285D01*
X60622571Y11921428D02*
X59122571Y11421428D01*
X60622571Y10921428D01*
X60622571Y10421428D02*
X59122571Y10421428D01*
X59122571Y10064285D01*
X59194000Y9850000D01*
X59336857Y9707142D01*
X59479714Y9635714D01*
X59765429Y9564285D01*
X59979714Y9564285D01*
X60265429Y9635714D01*
X60408286Y9707142D01*
X60551143Y9850000D01*
X60622571Y10064285D01*
X60622571Y10421428D01*
X60479714Y8064285D02*
X60551143Y8135714D01*
X60622571Y8350000D01*
X60622571Y8492857D01*
X60551143Y8707142D01*
X60408286Y8850000D01*
X60265429Y8921428D01*
X59979714Y8992857D01*
X59765429Y8992857D01*
X59479714Y8921428D01*
X59336857Y8850000D01*
X59194000Y8707142D01*
X59122571Y8492857D01*
X59122571Y8350000D01*
X59194000Y8135714D01*
X59265429Y8064285D01*
X59122571Y7564285D02*
X59122571Y6635714D01*
X59694000Y7135714D01*
X59694000Y6921428D01*
X59765429Y6778571D01*
X59836857Y6707142D01*
X59979714Y6635714D01*
X60336857Y6635714D01*
X60479714Y6707142D01*
X60551143Y6778571D01*
X60622571Y6921428D01*
X60622571Y7350000D01*
X60551143Y7492857D01*
X60479714Y7564285D01*
X57296857Y17135713D02*
X57296857Y16635713D01*
X58082571Y16421427D02*
X58082571Y17135713D01*
X56582571Y17135713D01*
X56582571Y16421427D01*
X56582571Y15921427D02*
X58082571Y14921427D01*
X56582571Y14921427D02*
X58082571Y15921427D01*
X58082571Y14349999D02*
X56582571Y14349999D01*
X56582571Y13778571D01*
X56654000Y13635713D01*
X56725429Y13564285D01*
X56868286Y13492856D01*
X57082571Y13492856D01*
X57225429Y13564285D01*
X57296857Y13635713D01*
X57368286Y13778571D01*
X57368286Y14349999D01*
X58225429Y13207142D02*
X58225429Y12064285D01*
X57654000Y11778571D02*
X57654000Y11064285D01*
X58082571Y11921428D02*
X56582571Y11421428D01*
X58082571Y10921428D01*
X58082571Y10421428D02*
X56582571Y10421428D01*
X56582571Y10064285D01*
X56654000Y9850000D01*
X56796857Y9707142D01*
X56939714Y9635714D01*
X57225429Y9564285D01*
X57439714Y9564285D01*
X57725429Y9635714D01*
X57868286Y9707142D01*
X58011143Y9850000D01*
X58082571Y10064285D01*
X58082571Y10421428D01*
X57939714Y8064285D02*
X58011143Y8135714D01*
X58082571Y8350000D01*
X58082571Y8492857D01*
X58011143Y8707142D01*
X57868286Y8850000D01*
X57725429Y8921428D01*
X57439714Y8992857D01*
X57225429Y8992857D01*
X56939714Y8921428D01*
X56796857Y8850000D01*
X56654000Y8707142D01*
X56582571Y8492857D01*
X56582571Y8350000D01*
X56654000Y8135714D01*
X56725429Y8064285D01*
X56725429Y7492857D02*
X56654000Y7421428D01*
X56582571Y7278571D01*
X56582571Y6921428D01*
X56654000Y6778571D01*
X56725429Y6707142D01*
X56868286Y6635714D01*
X57011143Y6635714D01*
X57225429Y6707142D01*
X58082571Y7564285D01*
X58082571Y6635714D01*
X54756857Y17135713D02*
X54756857Y16635713D01*
X55542571Y16421427D02*
X55542571Y17135713D01*
X54042571Y17135713D01*
X54042571Y16421427D01*
X54042571Y15921427D02*
X55542571Y14921427D01*
X54042571Y14921427D02*
X55542571Y15921427D01*
X55542571Y14349999D02*
X54042571Y14349999D01*
X54042571Y13778571D01*
X54114000Y13635713D01*
X54185429Y13564285D01*
X54328286Y13492856D01*
X54542571Y13492856D01*
X54685429Y13564285D01*
X54756857Y13635713D01*
X54828286Y13778571D01*
X54828286Y14349999D01*
X55685429Y13207142D02*
X55685429Y12064285D01*
X55114000Y11778571D02*
X55114000Y11064285D01*
X55542571Y11921428D02*
X54042571Y11421428D01*
X55542571Y10921428D01*
X55542571Y10421428D02*
X54042571Y10421428D01*
X54042571Y10064285D01*
X54114000Y9850000D01*
X54256857Y9707142D01*
X54399714Y9635714D01*
X54685429Y9564285D01*
X54899714Y9564285D01*
X55185429Y9635714D01*
X55328286Y9707142D01*
X55471143Y9850000D01*
X55542571Y10064285D01*
X55542571Y10421428D01*
X55399714Y8064285D02*
X55471143Y8135714D01*
X55542571Y8350000D01*
X55542571Y8492857D01*
X55471143Y8707142D01*
X55328286Y8850000D01*
X55185429Y8921428D01*
X54899714Y8992857D01*
X54685429Y8992857D01*
X54399714Y8921428D01*
X54256857Y8850000D01*
X54114000Y8707142D01*
X54042571Y8492857D01*
X54042571Y8350000D01*
X54114000Y8135714D01*
X54185429Y8064285D01*
X55542571Y6635714D02*
X55542571Y7492857D01*
X55542571Y7064285D02*
X54042571Y7064285D01*
X54256857Y7207142D01*
X54399714Y7350000D01*
X54471143Y7492857D01*
X52216857Y22564284D02*
X52216857Y22064284D01*
X53002571Y21849998D02*
X53002571Y22564284D01*
X51502571Y22564284D01*
X51502571Y21849998D01*
X51502571Y21349998D02*
X53002571Y20349998D01*
X51502571Y20349998D02*
X53002571Y21349998D01*
X53002571Y19778570D02*
X51502571Y19778570D01*
X51502571Y19207142D01*
X51574000Y19064284D01*
X51645429Y18992856D01*
X51788286Y18921427D01*
X52002571Y18921427D01*
X52145429Y18992856D01*
X52216857Y19064284D01*
X52288286Y19207142D01*
X52288286Y19778570D01*
X53145429Y18635713D02*
X53145429Y17492856D01*
X52574000Y17207142D02*
X52574000Y16492856D01*
X53002571Y17349999D02*
X51502571Y16849999D01*
X53002571Y16349999D01*
X53002571Y15849999D02*
X51502571Y15849999D01*
X51502571Y15492856D01*
X51574000Y15278571D01*
X51716857Y15135713D01*
X51859714Y15064285D01*
X52145429Y14992856D01*
X52359714Y14992856D01*
X52645429Y15064285D01*
X52788286Y15135713D01*
X52931143Y15278571D01*
X53002571Y15492856D01*
X53002571Y15849999D01*
X52859714Y13492856D02*
X52931143Y13564285D01*
X53002571Y13778571D01*
X53002571Y13921428D01*
X52931143Y14135713D01*
X52788286Y14278571D01*
X52645429Y14349999D01*
X52359714Y14421428D01*
X52145429Y14421428D01*
X51859714Y14349999D01*
X51716857Y14278571D01*
X51574000Y14135713D01*
X51502571Y13921428D01*
X51502571Y13778571D01*
X51574000Y13564285D01*
X51645429Y13492856D01*
X51502571Y12564285D02*
X51502571Y12421428D01*
X51574000Y12278571D01*
X51645429Y12207142D01*
X51788286Y12135713D01*
X52074000Y12064285D01*
X52431143Y12064285D01*
X52716857Y12135713D01*
X52859714Y12207142D01*
X52931143Y12278571D01*
X53002571Y12421428D01*
X53002571Y12564285D01*
X52931143Y12707142D01*
X52859714Y12778571D01*
X52716857Y12849999D01*
X52431143Y12921428D01*
X52074000Y12921428D01*
X51788286Y12849999D01*
X51645429Y12778571D01*
X51574000Y12707142D01*
X51502571Y12564285D01*
X53145429Y11778571D02*
X53145429Y10635714D01*
X53002571Y10278571D02*
X51502571Y10278571D01*
X51502571Y9921428D01*
X51574000Y9707143D01*
X51716857Y9564285D01*
X51859714Y9492857D01*
X52145429Y9421428D01*
X52359714Y9421428D01*
X52645429Y9492857D01*
X52788286Y9564285D01*
X52931143Y9707143D01*
X53002571Y9921428D01*
X53002571Y10278571D01*
X52574000Y8850000D02*
X52574000Y8135714D01*
X53002571Y8992857D02*
X51502571Y8492857D01*
X53002571Y7992857D01*
X52859714Y6635714D02*
X52931143Y6707143D01*
X53002571Y6921429D01*
X53002571Y7064286D01*
X52931143Y7278571D01*
X52788286Y7421429D01*
X52645429Y7492857D01*
X52359714Y7564286D01*
X52145429Y7564286D01*
X51859714Y7492857D01*
X51716857Y7421429D01*
X51574000Y7278571D01*
X51502571Y7064286D01*
X51502571Y6921429D01*
X51574000Y6707143D01*
X51645429Y6635714D01*
X48962571Y11778571D02*
X50462571Y11278571D01*
X48962571Y10778571D01*
X50462571Y10278571D02*
X48962571Y10278571D01*
X48962571Y9921428D01*
X49034000Y9707143D01*
X49176857Y9564285D01*
X49319714Y9492857D01*
X49605429Y9421428D01*
X49819714Y9421428D01*
X50105429Y9492857D01*
X50248286Y9564285D01*
X50391143Y9707143D01*
X50462571Y9921428D01*
X50462571Y10278571D01*
X50462571Y8778571D02*
X48962571Y8778571D01*
X48962571Y8421428D01*
X49034000Y8207143D01*
X49176857Y8064285D01*
X49319714Y7992857D01*
X49605429Y7921428D01*
X49819714Y7921428D01*
X50105429Y7992857D01*
X50248286Y8064285D01*
X50391143Y8207143D01*
X50462571Y8421428D01*
X50462571Y8778571D01*
X50034000Y7350000D02*
X50034000Y6635714D01*
X50462571Y7492857D02*
X48962571Y6992857D01*
X50462571Y6492857D01*
X10862571Y42902286D02*
X11934000Y42902286D01*
X12148286Y42973714D01*
X12291143Y43116571D01*
X12362571Y43330857D01*
X12362571Y43473714D01*
X10862571Y42402286D02*
X10862571Y41545143D01*
X12362571Y41973714D02*
X10862571Y41973714D01*
X11934000Y41116572D02*
X11934000Y40402286D01*
X12362571Y41259429D02*
X10862571Y40759429D01*
X12362571Y40259429D01*
X10934000Y38973715D02*
X10862571Y39116572D01*
X10862571Y39330858D01*
X10934000Y39545143D01*
X11076857Y39688001D01*
X11219714Y39759429D01*
X11505429Y39830858D01*
X11719714Y39830858D01*
X12005429Y39759429D01*
X12148286Y39688001D01*
X12291143Y39545143D01*
X12362571Y39330858D01*
X12362571Y39188001D01*
X12291143Y38973715D01*
X12219714Y38902286D01*
X11719714Y38902286D01*
X11719714Y39188001D01*
X12505429Y38616572D02*
X12505429Y37473715D01*
X12362571Y36259429D02*
X11648286Y36759429D01*
X12362571Y37116572D02*
X10862571Y37116572D01*
X10862571Y36545144D01*
X10934000Y36402286D01*
X11005429Y36330858D01*
X11148286Y36259429D01*
X11362571Y36259429D01*
X11505429Y36330858D01*
X11576857Y36402286D01*
X11648286Y36545144D01*
X11648286Y37116572D01*
X11576857Y35616572D02*
X11576857Y35116572D01*
X12362571Y34902286D02*
X12362571Y35616572D01*
X10862571Y35616572D01*
X10862571Y34902286D01*
X12291143Y34330858D02*
X12362571Y34116572D01*
X12362571Y33759429D01*
X12291143Y33616572D01*
X12219714Y33545143D01*
X12076857Y33473715D01*
X11934000Y33473715D01*
X11791143Y33545143D01*
X11719714Y33616572D01*
X11648286Y33759429D01*
X11576857Y34045143D01*
X11505429Y34188001D01*
X11434000Y34259429D01*
X11291143Y34330858D01*
X11148286Y34330858D01*
X11005429Y34259429D01*
X10934000Y34188001D01*
X10862571Y34045143D01*
X10862571Y33688001D01*
X10934000Y33473715D01*
X11576857Y32830858D02*
X11576857Y32330858D01*
X12362571Y32116572D02*
X12362571Y32830858D01*
X10862571Y32830858D01*
X10862571Y32116572D01*
X10862571Y31688001D02*
X10862571Y30830858D01*
X12362571Y31259429D02*
X10862571Y31259429D01*
X8322571Y42902286D02*
X9394000Y42902286D01*
X9608286Y42973714D01*
X9751143Y43116571D01*
X9822571Y43330857D01*
X9822571Y43473714D01*
X8322571Y42402286D02*
X8322571Y41545143D01*
X9822571Y41973714D02*
X8322571Y41973714D01*
X9394000Y41116572D02*
X9394000Y40402286D01*
X9822571Y41259429D02*
X8322571Y40759429D01*
X9822571Y40259429D01*
X8394000Y38973715D02*
X8322571Y39116572D01*
X8322571Y39330858D01*
X8394000Y39545143D01*
X8536857Y39688001D01*
X8679714Y39759429D01*
X8965429Y39830858D01*
X9179714Y39830858D01*
X9465429Y39759429D01*
X9608286Y39688001D01*
X9751143Y39545143D01*
X9822571Y39330858D01*
X9822571Y39188001D01*
X9751143Y38973715D01*
X9679714Y38902286D01*
X9179714Y38902286D01*
X9179714Y39188001D01*
X9965429Y38616572D02*
X9965429Y37473715D01*
X8322571Y37330858D02*
X8322571Y36473715D01*
X9822571Y36902286D02*
X8322571Y36902286D01*
X9822571Y35973715D02*
X8322571Y35973715D01*
X8322571Y35616572D01*
X8394000Y35402287D01*
X8536857Y35259429D01*
X8679714Y35188001D01*
X8965429Y35116572D01*
X9179714Y35116572D01*
X9465429Y35188001D01*
X9608286Y35259429D01*
X9751143Y35402287D01*
X9822571Y35616572D01*
X9822571Y35973715D01*
X9822571Y34473715D02*
X8322571Y34473715D01*
X5782571Y42902286D02*
X6854000Y42902286D01*
X7068286Y42973714D01*
X7211143Y43116571D01*
X7282571Y43330857D01*
X7282571Y43473714D01*
X5782571Y42402286D02*
X5782571Y41545143D01*
X7282571Y41973714D02*
X5782571Y41973714D01*
X6854000Y41116572D02*
X6854000Y40402286D01*
X7282571Y41259429D02*
X5782571Y40759429D01*
X7282571Y40259429D01*
X5854000Y38973715D02*
X5782571Y39116572D01*
X5782571Y39330858D01*
X5854000Y39545143D01*
X5996857Y39688001D01*
X6139714Y39759429D01*
X6425429Y39830858D01*
X6639714Y39830858D01*
X6925429Y39759429D01*
X7068286Y39688001D01*
X7211143Y39545143D01*
X7282571Y39330858D01*
X7282571Y39188001D01*
X7211143Y38973715D01*
X7139714Y38902286D01*
X6639714Y38902286D01*
X6639714Y39188001D01*
X7425429Y38616572D02*
X7425429Y37473715D01*
X5782571Y37330858D02*
X5782571Y36473715D01*
X7282571Y36902286D02*
X5782571Y36902286D01*
X7282571Y35973715D02*
X5782571Y35973715D01*
X5782571Y35616572D01*
X5854000Y35402287D01*
X5996857Y35259429D01*
X6139714Y35188001D01*
X6425429Y35116572D01*
X6639714Y35116572D01*
X6925429Y35188001D01*
X7068286Y35259429D01*
X7211143Y35402287D01*
X7282571Y35616572D01*
X7282571Y35973715D01*
X5782571Y34188001D02*
X5782571Y33902287D01*
X5854000Y33759429D01*
X5996857Y33616572D01*
X6282571Y33545144D01*
X6782571Y33545144D01*
X7068286Y33616572D01*
X7211143Y33759429D01*
X7282571Y33902287D01*
X7282571Y34188001D01*
X7211143Y34330858D01*
X7068286Y34473715D01*
X6782571Y34545144D01*
X6282571Y34545144D01*
X5996857Y34473715D01*
X5854000Y34330858D01*
X5782571Y34188001D01*
X7425429Y33259429D02*
X7425429Y32116572D01*
X7211143Y31830858D02*
X7282571Y31616572D01*
X7282571Y31259429D01*
X7211143Y31116572D01*
X7139714Y31045143D01*
X6996857Y30973715D01*
X6854000Y30973715D01*
X6711143Y31045143D01*
X6639714Y31116572D01*
X6568286Y31259429D01*
X6496857Y31545143D01*
X6425429Y31688001D01*
X6354000Y31759429D01*
X6211143Y31830858D01*
X6068286Y31830858D01*
X5925429Y31759429D01*
X5854000Y31688001D01*
X5782571Y31545143D01*
X5782571Y31188001D01*
X5854000Y30973715D01*
X5782571Y30473715D02*
X7282571Y30116572D01*
X6211143Y29830858D01*
X7282571Y29545144D01*
X5782571Y29188001D01*
X5782571Y28330858D02*
X5782571Y28045144D01*
X5854000Y27902286D01*
X5996857Y27759429D01*
X6282571Y27688001D01*
X6782571Y27688001D01*
X7068286Y27759429D01*
X7211143Y27902286D01*
X7282571Y28045144D01*
X7282571Y28330858D01*
X7211143Y28473715D01*
X7068286Y28616572D01*
X6782571Y28688001D01*
X6282571Y28688001D01*
X5996857Y28616572D01*
X5854000Y28473715D01*
X5782571Y28330858D01*
X3242571Y42902286D02*
X4314000Y42902286D01*
X4528286Y42973714D01*
X4671143Y43116571D01*
X4742571Y43330857D01*
X4742571Y43473714D01*
X3242571Y42402286D02*
X3242571Y41545143D01*
X4742571Y41973714D02*
X3242571Y41973714D01*
X4314000Y41116572D02*
X4314000Y40402286D01*
X4742571Y41259429D02*
X3242571Y40759429D01*
X4742571Y40259429D01*
X3314000Y38973715D02*
X3242571Y39116572D01*
X3242571Y39330858D01*
X3314000Y39545143D01*
X3456857Y39688001D01*
X3599714Y39759429D01*
X3885429Y39830858D01*
X4099714Y39830858D01*
X4385429Y39759429D01*
X4528286Y39688001D01*
X4671143Y39545143D01*
X4742571Y39330858D01*
X4742571Y39188001D01*
X4671143Y38973715D01*
X4599714Y38902286D01*
X4099714Y38902286D01*
X4099714Y39188001D01*
X4885429Y38616572D02*
X4885429Y37473715D01*
X3242571Y37330858D02*
X3242571Y36473715D01*
X4742571Y36902286D02*
X3242571Y36902286D01*
X4599714Y35116572D02*
X4671143Y35188001D01*
X4742571Y35402287D01*
X4742571Y35545144D01*
X4671143Y35759429D01*
X4528286Y35902287D01*
X4385429Y35973715D01*
X4099714Y36045144D01*
X3885429Y36045144D01*
X3599714Y35973715D01*
X3456857Y35902287D01*
X3314000Y35759429D01*
X3242571Y35545144D01*
X3242571Y35402287D01*
X3314000Y35188001D01*
X3385429Y35116572D01*
X4742571Y34473715D02*
X3242571Y34473715D01*
X4742571Y33616572D02*
X3885429Y34259429D01*
X3242571Y33616572D02*
X4099714Y34473715D01*
X4885429Y33330858D02*
X4885429Y32188001D01*
X4671143Y31902287D02*
X4742571Y31688001D01*
X4742571Y31330858D01*
X4671143Y31188001D01*
X4599714Y31116572D01*
X4456857Y31045144D01*
X4314000Y31045144D01*
X4171143Y31116572D01*
X4099714Y31188001D01*
X4028286Y31330858D01*
X3956857Y31616572D01*
X3885429Y31759430D01*
X3814000Y31830858D01*
X3671143Y31902287D01*
X3528286Y31902287D01*
X3385429Y31830858D01*
X3314000Y31759430D01*
X3242571Y31616572D01*
X3242571Y31259430D01*
X3314000Y31045144D01*
X3242571Y30545144D02*
X4742571Y30188001D01*
X3671143Y29902287D01*
X4742571Y29616573D01*
X3242571Y29259430D01*
X4599714Y27830858D02*
X4671143Y27902287D01*
X4742571Y28116573D01*
X4742571Y28259430D01*
X4671143Y28473715D01*
X4528286Y28616573D01*
X4385429Y28688001D01*
X4099714Y28759430D01*
X3885429Y28759430D01*
X3599714Y28688001D01*
X3456857Y28616573D01*
X3314000Y28473715D01*
X3242571Y28259430D01*
X3242571Y28116573D01*
X3314000Y27902287D01*
X3385429Y27830858D01*
X4742571Y26473715D02*
X4742571Y27188001D01*
X3242571Y27188001D01*
X4742571Y25973715D02*
X3242571Y25973715D01*
X4742571Y25116572D02*
X3885429Y25759429D01*
X3242571Y25116572D02*
X4099714Y25973715D01*
X702571Y42902286D02*
X1774000Y42902286D01*
X1988286Y42973714D01*
X2131143Y43116571D01*
X2202571Y43330857D01*
X2202571Y43473714D01*
X702571Y42402286D02*
X702571Y41545143D01*
X2202571Y41973714D02*
X702571Y41973714D01*
X1774000Y41116572D02*
X1774000Y40402286D01*
X2202571Y41259429D02*
X702571Y40759429D01*
X2202571Y40259429D01*
X774000Y38973715D02*
X702571Y39116572D01*
X702571Y39330858D01*
X774000Y39545143D01*
X916857Y39688001D01*
X1059714Y39759429D01*
X1345429Y39830858D01*
X1559714Y39830858D01*
X1845429Y39759429D01*
X1988286Y39688001D01*
X2131143Y39545143D01*
X2202571Y39330858D01*
X2202571Y39188001D01*
X2131143Y38973715D01*
X2059714Y38902286D01*
X1559714Y38902286D01*
X1559714Y39188001D01*
X2345429Y38616572D02*
X2345429Y37473715D01*
X702571Y37330858D02*
X702571Y36473715D01*
X2202571Y36902286D02*
X702571Y36902286D01*
X2202571Y35973715D02*
X702571Y35973715D01*
X1774000Y35473715D01*
X702571Y34973715D01*
X2202571Y34973715D01*
X2131143Y34330858D02*
X2202571Y34116572D01*
X2202571Y33759429D01*
X2131143Y33616572D01*
X2059714Y33545143D01*
X1916857Y33473715D01*
X1774000Y33473715D01*
X1631143Y33545143D01*
X1559714Y33616572D01*
X1488286Y33759429D01*
X1416857Y34045143D01*
X1345429Y34188001D01*
X1274000Y34259429D01*
X1131143Y34330858D01*
X988286Y34330858D01*
X845429Y34259429D01*
X774000Y34188001D01*
X702571Y34045143D01*
X702571Y33688001D01*
X774000Y33473715D01*
X2345429Y33188001D02*
X2345429Y32045144D01*
X2131143Y31759430D02*
X2202571Y31545144D01*
X2202571Y31188001D01*
X2131143Y31045144D01*
X2059714Y30973715D01*
X1916857Y30902287D01*
X1774000Y30902287D01*
X1631143Y30973715D01*
X1559714Y31045144D01*
X1488286Y31188001D01*
X1416857Y31473715D01*
X1345429Y31616573D01*
X1274000Y31688001D01*
X1131143Y31759430D01*
X988286Y31759430D01*
X845429Y31688001D01*
X774000Y31616573D01*
X702571Y31473715D01*
X702571Y31116573D01*
X774000Y30902287D01*
X702571Y30402287D02*
X2202571Y30045144D01*
X1131143Y29759430D01*
X2202571Y29473716D01*
X702571Y29116573D01*
X2202571Y28545144D02*
X702571Y28545144D01*
X702571Y28188001D01*
X774000Y27973716D01*
X916857Y27830858D01*
X1059714Y27759430D01*
X1345429Y27688001D01*
X1559714Y27688001D01*
X1845429Y27759430D01*
X1988286Y27830858D01*
X2131143Y27973716D01*
X2202571Y28188001D01*
X2202571Y28545144D01*
X2202571Y27045144D02*
X702571Y27045144D01*
X702571Y26045144D02*
X702571Y25759430D01*
X774000Y25616572D01*
X916857Y25473715D01*
X1202571Y25402287D01*
X1702571Y25402287D01*
X1988286Y25473715D01*
X2131143Y25616572D01*
X2202571Y25759430D01*
X2202571Y26045144D01*
X2131143Y26188001D01*
X1988286Y26330858D01*
X1702571Y26402287D01*
X1202571Y26402287D01*
X916857Y26330858D01*
X774000Y26188001D01*
X702571Y26045144D01*
D14*
X72094000Y42849905D02*
X72041619Y42954667D01*
X72041619Y43111810D01*
X72094000Y43268952D01*
X72198762Y43373714D01*
X72303524Y43426095D01*
X72513048Y43478476D01*
X72670190Y43478476D01*
X72879714Y43426095D01*
X72984476Y43373714D01*
X73089238Y43268952D01*
X73141619Y43111810D01*
X73141619Y43007048D01*
X73089238Y42849905D01*
X73036857Y42797524D01*
X72670190Y42797524D01*
X72670190Y43007048D01*
X73141619Y42326095D02*
X72041619Y42326095D01*
X72041619Y41907048D01*
X72094000Y41802286D01*
X72146381Y41749905D01*
X72251143Y41697524D01*
X72408286Y41697524D01*
X72513048Y41749905D01*
X72565429Y41802286D01*
X72617810Y41907048D01*
X72617810Y42326095D01*
X73141619Y41226095D02*
X72041619Y41226095D01*
X72041619Y40492761D02*
X72041619Y40283238D01*
X72094000Y40178476D01*
X72198762Y40073714D01*
X72408286Y40021333D01*
X72774952Y40021333D01*
X72984476Y40073714D01*
X73089238Y40178476D01*
X73141619Y40283238D01*
X73141619Y40492761D01*
X73089238Y40597523D01*
X72984476Y40702285D01*
X72774952Y40754666D01*
X72408286Y40754666D01*
X72198762Y40702285D01*
X72094000Y40597523D01*
X72041619Y40492761D01*
X72041619Y39654666D02*
X72041619Y38973714D01*
X72460667Y39340380D01*
X72460667Y39183238D01*
X72513048Y39078476D01*
X72565429Y39026095D01*
X72670190Y38973714D01*
X72932095Y38973714D01*
X73036857Y39026095D01*
X73089238Y39078476D01*
X73141619Y39183238D01*
X73141619Y39497523D01*
X73089238Y39602285D01*
X73036857Y39654666D01*
X73246381Y38764190D02*
X73246381Y37926095D01*
X72041619Y37768952D02*
X72041619Y37088000D01*
X72460667Y37454666D01*
X72460667Y37297524D01*
X72513048Y37192762D01*
X72565429Y37140381D01*
X72670190Y37088000D01*
X72932095Y37088000D01*
X73036857Y37140381D01*
X73089238Y37192762D01*
X73141619Y37297524D01*
X73141619Y37611809D01*
X73089238Y37716571D01*
X73036857Y37768952D01*
X69354000Y42849905D02*
X69282571Y42954667D01*
X69282571Y43111810D01*
X69354000Y43268952D01*
X69496857Y43373714D01*
X69639714Y43426095D01*
X69925429Y43478476D01*
X70139714Y43478476D01*
X70425429Y43426095D01*
X70568286Y43373714D01*
X70711143Y43268952D01*
X70782571Y43111810D01*
X70782571Y43007048D01*
X70711143Y42849905D01*
X70639714Y42797524D01*
X70139714Y42797524D01*
X70139714Y43007048D01*
X70782571Y42326095D02*
X69282571Y42326095D01*
X69282571Y41907048D01*
X69354000Y41802286D01*
X69425429Y41749905D01*
X69568286Y41697524D01*
X69782571Y41697524D01*
X69925429Y41749905D01*
X69996857Y41802286D01*
X70068286Y41907048D01*
X70068286Y42326095D01*
X70782571Y41226095D02*
X69282571Y41226095D01*
X69282571Y40492761D02*
X69282571Y40283238D01*
X69354000Y40178476D01*
X69496857Y40073714D01*
X69782571Y40021333D01*
X70282571Y40021333D01*
X70568286Y40073714D01*
X70711143Y40178476D01*
X70782571Y40283238D01*
X70782571Y40492761D01*
X70711143Y40597523D01*
X70568286Y40702285D01*
X70282571Y40754666D01*
X69782571Y40754666D01*
X69496857Y40702285D01*
X69354000Y40597523D01*
X69282571Y40492761D01*
X69282571Y39654666D02*
X69282571Y38973714D01*
X69854000Y39340380D01*
X69854000Y39183238D01*
X69925429Y39078476D01*
X69996857Y39026095D01*
X70139714Y38973714D01*
X70496857Y38973714D01*
X70639714Y39026095D01*
X70711143Y39078476D01*
X70782571Y39183238D01*
X70782571Y39497523D01*
X70711143Y39602285D01*
X70639714Y39654666D01*
X70925429Y38764190D02*
X70925429Y37926095D01*
X69282571Y37768952D02*
X69282571Y37088000D01*
X69854000Y37454666D01*
X69854000Y37297524D01*
X69925429Y37192762D01*
X69996857Y37140381D01*
X70139714Y37088000D01*
X70496857Y37088000D01*
X70639714Y37140381D01*
X70711143Y37192762D01*
X70782571Y37297524D01*
X70782571Y37611809D01*
X70711143Y37716571D01*
X70639714Y37768952D01*
D13*
X66814000Y42545143D02*
X66742571Y42688000D01*
X66742571Y42902286D01*
X66814000Y43116571D01*
X66956857Y43259429D01*
X67099714Y43330857D01*
X67385429Y43402286D01*
X67599714Y43402286D01*
X67885429Y43330857D01*
X68028286Y43259429D01*
X68171143Y43116571D01*
X68242571Y42902286D01*
X68242571Y42759429D01*
X68171143Y42545143D01*
X68099714Y42473714D01*
X67599714Y42473714D01*
X67599714Y42759429D01*
X68242571Y41830857D02*
X66742571Y41830857D01*
X66742571Y41259429D01*
X66814000Y41116571D01*
X66885429Y41045143D01*
X67028286Y40973714D01*
X67242571Y40973714D01*
X67385429Y41045143D01*
X67456857Y41116571D01*
X67528286Y41259429D01*
X67528286Y41830857D01*
X68242571Y40330857D02*
X66742571Y40330857D01*
X66742571Y39330857D02*
X66742571Y39045143D01*
X66814000Y38902285D01*
X66956857Y38759428D01*
X67242571Y38688000D01*
X67742571Y38688000D01*
X68028286Y38759428D01*
X68171143Y38902285D01*
X68242571Y39045143D01*
X68242571Y39330857D01*
X68171143Y39473714D01*
X68028286Y39616571D01*
X67742571Y39688000D01*
X67242571Y39688000D01*
X66956857Y39616571D01*
X66814000Y39473714D01*
X66742571Y39330857D01*
X66742571Y38187999D02*
X66742571Y37259428D01*
X67314000Y37759428D01*
X67314000Y37545142D01*
X67385429Y37402285D01*
X67456857Y37330856D01*
X67599714Y37259428D01*
X67956857Y37259428D01*
X68099714Y37330856D01*
X68171143Y37402285D01*
X68242571Y37545142D01*
X68242571Y37973714D01*
X68171143Y38116571D01*
X68099714Y38187999D01*
X68385429Y36973714D02*
X68385429Y35830857D01*
X68242571Y34688000D02*
X68242571Y35545143D01*
X68242571Y35116571D02*
X66742571Y35116571D01*
X66956857Y35259428D01*
X67099714Y35402286D01*
X67171143Y35545143D01*
X64274000Y42545143D02*
X64202571Y42688000D01*
X64202571Y42902286D01*
X64274000Y43116571D01*
X64416857Y43259429D01*
X64559714Y43330857D01*
X64845429Y43402286D01*
X65059714Y43402286D01*
X65345429Y43330857D01*
X65488286Y43259429D01*
X65631143Y43116571D01*
X65702571Y42902286D01*
X65702571Y42759429D01*
X65631143Y42545143D01*
X65559714Y42473714D01*
X65059714Y42473714D01*
X65059714Y42759429D01*
X65702571Y41830857D02*
X64202571Y41830857D01*
X64202571Y41259429D01*
X64274000Y41116571D01*
X64345429Y41045143D01*
X64488286Y40973714D01*
X64702571Y40973714D01*
X64845429Y41045143D01*
X64916857Y41116571D01*
X64988286Y41259429D01*
X64988286Y41830857D01*
X65702571Y40330857D02*
X64202571Y40330857D01*
X64202571Y39330857D02*
X64202571Y39045143D01*
X64274000Y38902285D01*
X64416857Y38759428D01*
X64702571Y38688000D01*
X65202571Y38688000D01*
X65488286Y38759428D01*
X65631143Y38902285D01*
X65702571Y39045143D01*
X65702571Y39330857D01*
X65631143Y39473714D01*
X65488286Y39616571D01*
X65202571Y39688000D01*
X64702571Y39688000D01*
X64416857Y39616571D01*
X64274000Y39473714D01*
X64202571Y39330857D01*
X64202571Y38187999D02*
X64202571Y37259428D01*
X64774000Y37759428D01*
X64774000Y37545142D01*
X64845429Y37402285D01*
X64916857Y37330856D01*
X65059714Y37259428D01*
X65416857Y37259428D01*
X65559714Y37330856D01*
X65631143Y37402285D01*
X65702571Y37545142D01*
X65702571Y37973714D01*
X65631143Y38116571D01*
X65559714Y38187999D01*
X65845429Y36973714D02*
X65845429Y35830857D01*
X64202571Y35188000D02*
X64202571Y35045143D01*
X64274000Y34902286D01*
X64345429Y34830857D01*
X64488286Y34759428D01*
X64774000Y34688000D01*
X65131143Y34688000D01*
X65416857Y34759428D01*
X65559714Y34830857D01*
X65631143Y34902286D01*
X65702571Y35045143D01*
X65702571Y35188000D01*
X65631143Y35330857D01*
X65559714Y35402286D01*
X65416857Y35473714D01*
X65131143Y35545143D01*
X64774000Y35545143D01*
X64488286Y35473714D01*
X64345429Y35402286D01*
X64274000Y35330857D01*
X64202571Y35188000D01*
X61734000Y42545143D02*
X61662571Y42688000D01*
X61662571Y42902286D01*
X61734000Y43116571D01*
X61876857Y43259429D01*
X62019714Y43330857D01*
X62305429Y43402286D01*
X62519714Y43402286D01*
X62805429Y43330857D01*
X62948286Y43259429D01*
X63091143Y43116571D01*
X63162571Y42902286D01*
X63162571Y42759429D01*
X63091143Y42545143D01*
X63019714Y42473714D01*
X62519714Y42473714D01*
X62519714Y42759429D01*
X63162571Y41830857D02*
X61662571Y41830857D01*
X61662571Y41259429D01*
X61734000Y41116571D01*
X61805429Y41045143D01*
X61948286Y40973714D01*
X62162571Y40973714D01*
X62305429Y41045143D01*
X62376857Y41116571D01*
X62448286Y41259429D01*
X62448286Y41830857D01*
X63162571Y40330857D02*
X61662571Y40330857D01*
X61662571Y39330857D02*
X61662571Y39045143D01*
X61734000Y38902285D01*
X61876857Y38759428D01*
X62162571Y38688000D01*
X62662571Y38688000D01*
X62948286Y38759428D01*
X63091143Y38902285D01*
X63162571Y39045143D01*
X63162571Y39330857D01*
X63091143Y39473714D01*
X62948286Y39616571D01*
X62662571Y39688000D01*
X62162571Y39688000D01*
X61876857Y39616571D01*
X61734000Y39473714D01*
X61662571Y39330857D01*
X63162571Y37259428D02*
X63162571Y38116571D01*
X63162571Y37687999D02*
X61662571Y37687999D01*
X61876857Y37830856D01*
X62019714Y37973714D01*
X62091143Y38116571D01*
X63305429Y36973714D02*
X63305429Y35830857D01*
X63162571Y34688000D02*
X63162571Y35545143D01*
X63162571Y35116571D02*
X61662571Y35116571D01*
X61876857Y35259428D01*
X62019714Y35402286D01*
X62091143Y35545143D01*
X61662571Y34188000D02*
X61662571Y33259429D01*
X62234000Y33759429D01*
X62234000Y33545143D01*
X62305429Y33402286D01*
X62376857Y33330857D01*
X62519714Y33259429D01*
X62876857Y33259429D01*
X63019714Y33330857D01*
X63091143Y33402286D01*
X63162571Y33545143D01*
X63162571Y33973715D01*
X63091143Y34116572D01*
X63019714Y34188000D01*
X59194000Y42545143D02*
X59122571Y42688000D01*
X59122571Y42902286D01*
X59194000Y43116571D01*
X59336857Y43259429D01*
X59479714Y43330857D01*
X59765429Y43402286D01*
X59979714Y43402286D01*
X60265429Y43330857D01*
X60408286Y43259429D01*
X60551143Y43116571D01*
X60622571Y42902286D01*
X60622571Y42759429D01*
X60551143Y42545143D01*
X60479714Y42473714D01*
X59979714Y42473714D01*
X59979714Y42759429D01*
X60622571Y41830857D02*
X59122571Y41830857D01*
X59122571Y41259429D01*
X59194000Y41116571D01*
X59265429Y41045143D01*
X59408286Y40973714D01*
X59622571Y40973714D01*
X59765429Y41045143D01*
X59836857Y41116571D01*
X59908286Y41259429D01*
X59908286Y41830857D01*
X60622571Y40330857D02*
X59122571Y40330857D01*
X59122571Y39330857D02*
X59122571Y39045143D01*
X59194000Y38902285D01*
X59336857Y38759428D01*
X59622571Y38688000D01*
X60122571Y38688000D01*
X60408286Y38759428D01*
X60551143Y38902285D01*
X60622571Y39045143D01*
X60622571Y39330857D01*
X60551143Y39473714D01*
X60408286Y39616571D01*
X60122571Y39688000D01*
X59622571Y39688000D01*
X59336857Y39616571D01*
X59194000Y39473714D01*
X59122571Y39330857D01*
X60622571Y37259428D02*
X60622571Y38116571D01*
X60622571Y37687999D02*
X59122571Y37687999D01*
X59336857Y37830856D01*
X59479714Y37973714D01*
X59551143Y38116571D01*
X60765429Y36973714D02*
X60765429Y35830857D01*
X60622571Y34688000D02*
X60622571Y35545143D01*
X60622571Y35116571D02*
X59122571Y35116571D01*
X59336857Y35259428D01*
X59479714Y35402286D01*
X59551143Y35545143D01*
X59265429Y34116572D02*
X59194000Y34045143D01*
X59122571Y33902286D01*
X59122571Y33545143D01*
X59194000Y33402286D01*
X59265429Y33330857D01*
X59408286Y33259429D01*
X59551143Y33259429D01*
X59765429Y33330857D01*
X60622571Y34188000D01*
X60622571Y33259429D01*
X56654000Y42545143D02*
X56582571Y42688000D01*
X56582571Y42902286D01*
X56654000Y43116571D01*
X56796857Y43259429D01*
X56939714Y43330857D01*
X57225429Y43402286D01*
X57439714Y43402286D01*
X57725429Y43330857D01*
X57868286Y43259429D01*
X58011143Y43116571D01*
X58082571Y42902286D01*
X58082571Y42759429D01*
X58011143Y42545143D01*
X57939714Y42473714D01*
X57439714Y42473714D01*
X57439714Y42759429D01*
X58082571Y41830857D02*
X56582571Y41830857D01*
X56582571Y41259429D01*
X56654000Y41116571D01*
X56725429Y41045143D01*
X56868286Y40973714D01*
X57082571Y40973714D01*
X57225429Y41045143D01*
X57296857Y41116571D01*
X57368286Y41259429D01*
X57368286Y41830857D01*
X58082571Y40330857D02*
X56582571Y40330857D01*
X56582571Y39330857D02*
X56582571Y39045143D01*
X56654000Y38902285D01*
X56796857Y38759428D01*
X57082571Y38688000D01*
X57582571Y38688000D01*
X57868286Y38759428D01*
X58011143Y38902285D01*
X58082571Y39045143D01*
X58082571Y39330857D01*
X58011143Y39473714D01*
X57868286Y39616571D01*
X57582571Y39688000D01*
X57082571Y39688000D01*
X56796857Y39616571D01*
X56654000Y39473714D01*
X56582571Y39330857D01*
X58082571Y37259428D02*
X58082571Y38116571D01*
X58082571Y37687999D02*
X56582571Y37687999D01*
X56796857Y37830856D01*
X56939714Y37973714D01*
X57011143Y38116571D01*
X58225429Y36973714D02*
X58225429Y35830857D01*
X58082571Y34688000D02*
X58082571Y35545143D01*
X58082571Y35116571D02*
X56582571Y35116571D01*
X56796857Y35259428D01*
X56939714Y35402286D01*
X57011143Y35545143D01*
X56725429Y34116572D02*
X56654000Y34045143D01*
X56582571Y33902286D01*
X56582571Y33545143D01*
X56654000Y33402286D01*
X56725429Y33330857D01*
X56868286Y33259429D01*
X57011143Y33259429D01*
X57225429Y33330857D01*
X58082571Y34188000D01*
X58082571Y33259429D01*
X54114000Y42545143D02*
X54042571Y42688000D01*
X54042571Y42902286D01*
X54114000Y43116571D01*
X54256857Y43259429D01*
X54399714Y43330857D01*
X54685429Y43402286D01*
X54899714Y43402286D01*
X55185429Y43330857D01*
X55328286Y43259429D01*
X55471143Y43116571D01*
X55542571Y42902286D01*
X55542571Y42759429D01*
X55471143Y42545143D01*
X55399714Y42473714D01*
X54899714Y42473714D01*
X54899714Y42759429D01*
X55542571Y41830857D02*
X54042571Y41830857D01*
X54042571Y41259429D01*
X54114000Y41116571D01*
X54185429Y41045143D01*
X54328286Y40973714D01*
X54542571Y40973714D01*
X54685429Y41045143D01*
X54756857Y41116571D01*
X54828286Y41259429D01*
X54828286Y41830857D01*
X55542571Y40330857D02*
X54042571Y40330857D01*
X54042571Y39330857D02*
X54042571Y39045143D01*
X54114000Y38902285D01*
X54256857Y38759428D01*
X54542571Y38688000D01*
X55042571Y38688000D01*
X55328286Y38759428D01*
X55471143Y38902285D01*
X55542571Y39045143D01*
X55542571Y39330857D01*
X55471143Y39473714D01*
X55328286Y39616571D01*
X55042571Y39688000D01*
X54542571Y39688000D01*
X54256857Y39616571D01*
X54114000Y39473714D01*
X54042571Y39330857D01*
X55542571Y37259428D02*
X55542571Y38116571D01*
X55542571Y37687999D02*
X54042571Y37687999D01*
X54256857Y37830856D01*
X54399714Y37973714D01*
X54471143Y38116571D01*
X55685429Y36973714D02*
X55685429Y35830857D01*
X54542571Y34830857D02*
X55542571Y34830857D01*
X53971143Y35188000D02*
X55042571Y35545143D01*
X55042571Y34616571D01*
X51574000Y42545143D02*
X51502571Y42688000D01*
X51502571Y42902286D01*
X51574000Y43116571D01*
X51716857Y43259429D01*
X51859714Y43330857D01*
X52145429Y43402286D01*
X52359714Y43402286D01*
X52645429Y43330857D01*
X52788286Y43259429D01*
X52931143Y43116571D01*
X53002571Y42902286D01*
X53002571Y42759429D01*
X52931143Y42545143D01*
X52859714Y42473714D01*
X52359714Y42473714D01*
X52359714Y42759429D01*
X53002571Y41830857D02*
X51502571Y41830857D01*
X51502571Y41259429D01*
X51574000Y41116571D01*
X51645429Y41045143D01*
X51788286Y40973714D01*
X52002571Y40973714D01*
X52145429Y41045143D01*
X52216857Y41116571D01*
X52288286Y41259429D01*
X52288286Y41830857D01*
X53002571Y40330857D02*
X51502571Y40330857D01*
X51502571Y39330857D02*
X51502571Y39045143D01*
X51574000Y38902285D01*
X51716857Y38759428D01*
X52002571Y38688000D01*
X52502571Y38688000D01*
X52788286Y38759428D01*
X52931143Y38902285D01*
X53002571Y39045143D01*
X53002571Y39330857D01*
X52931143Y39473714D01*
X52788286Y39616571D01*
X52502571Y39688000D01*
X52002571Y39688000D01*
X51716857Y39616571D01*
X51574000Y39473714D01*
X51502571Y39330857D01*
X53002571Y37259428D02*
X53002571Y38116571D01*
X53002571Y37687999D02*
X51502571Y37687999D01*
X51716857Y37830856D01*
X51859714Y37973714D01*
X51931143Y38116571D01*
X53145429Y36973714D02*
X53145429Y35830857D01*
X51502571Y35616571D02*
X51502571Y34688000D01*
X52074000Y35188000D01*
X52074000Y34973714D01*
X52145429Y34830857D01*
X52216857Y34759428D01*
X52359714Y34688000D01*
X52716857Y34688000D01*
X52859714Y34759428D01*
X52931143Y34830857D01*
X53002571Y34973714D01*
X53002571Y35402286D01*
X52931143Y35545143D01*
X52859714Y35616571D01*
X49034000Y42545143D02*
X48962571Y42688000D01*
X48962571Y42902286D01*
X49034000Y43116571D01*
X49176857Y43259429D01*
X49319714Y43330857D01*
X49605429Y43402286D01*
X49819714Y43402286D01*
X50105429Y43330857D01*
X50248286Y43259429D01*
X50391143Y43116571D01*
X50462571Y42902286D01*
X50462571Y42759429D01*
X50391143Y42545143D01*
X50319714Y42473714D01*
X49819714Y42473714D01*
X49819714Y42759429D01*
X50462571Y41830857D02*
X48962571Y41830857D01*
X48962571Y41259429D01*
X49034000Y41116571D01*
X49105429Y41045143D01*
X49248286Y40973714D01*
X49462571Y40973714D01*
X49605429Y41045143D01*
X49676857Y41116571D01*
X49748286Y41259429D01*
X49748286Y41830857D01*
X50462571Y40330857D02*
X48962571Y40330857D01*
X48962571Y39330857D02*
X48962571Y39045143D01*
X49034000Y38902285D01*
X49176857Y38759428D01*
X49462571Y38688000D01*
X49962571Y38688000D01*
X50248286Y38759428D01*
X50391143Y38902285D01*
X50462571Y39045143D01*
X50462571Y39330857D01*
X50391143Y39473714D01*
X50248286Y39616571D01*
X49962571Y39688000D01*
X49462571Y39688000D01*
X49176857Y39616571D01*
X49034000Y39473714D01*
X48962571Y39330857D01*
X50462571Y37259428D02*
X50462571Y38116571D01*
X50462571Y37687999D02*
X48962571Y37687999D01*
X49176857Y37830856D01*
X49319714Y37973714D01*
X49391143Y38116571D01*
X50605429Y36973714D02*
X50605429Y35830857D01*
X49105429Y35545143D02*
X49034000Y35473714D01*
X48962571Y35330857D01*
X48962571Y34973714D01*
X49034000Y34830857D01*
X49105429Y34759428D01*
X49248286Y34688000D01*
X49391143Y34688000D01*
X49605429Y34759428D01*
X50462571Y35616571D01*
X50462571Y34688000D01*
X46494000Y42545143D02*
X46422571Y42688000D01*
X46422571Y42902286D01*
X46494000Y43116571D01*
X46636857Y43259429D01*
X46779714Y43330857D01*
X47065429Y43402286D01*
X47279714Y43402286D01*
X47565429Y43330857D01*
X47708286Y43259429D01*
X47851143Y43116571D01*
X47922571Y42902286D01*
X47922571Y42759429D01*
X47851143Y42545143D01*
X47779714Y42473714D01*
X47279714Y42473714D01*
X47279714Y42759429D01*
X47922571Y41830857D02*
X46422571Y41830857D01*
X46422571Y41259429D01*
X46494000Y41116571D01*
X46565429Y41045143D01*
X46708286Y40973714D01*
X46922571Y40973714D01*
X47065429Y41045143D01*
X47136857Y41116571D01*
X47208286Y41259429D01*
X47208286Y41830857D01*
X47922571Y40330857D02*
X46422571Y40330857D01*
X46422571Y39330857D02*
X46422571Y39045143D01*
X46494000Y38902285D01*
X46636857Y38759428D01*
X46922571Y38688000D01*
X47422571Y38688000D01*
X47708286Y38759428D01*
X47851143Y38902285D01*
X47922571Y39045143D01*
X47922571Y39330857D01*
X47851143Y39473714D01*
X47708286Y39616571D01*
X47422571Y39688000D01*
X46922571Y39688000D01*
X46636857Y39616571D01*
X46494000Y39473714D01*
X46422571Y39330857D01*
X47922571Y37259428D02*
X47922571Y38116571D01*
X47922571Y37687999D02*
X46422571Y37687999D01*
X46636857Y37830856D01*
X46779714Y37973714D01*
X46851143Y38116571D01*
X48065429Y36973714D02*
X48065429Y35830857D01*
X47922571Y34688000D02*
X47922571Y35545143D01*
X47922571Y35116571D02*
X46422571Y35116571D01*
X46636857Y35259428D01*
X46779714Y35402286D01*
X46851143Y35545143D01*
X43954000Y42545143D02*
X43882571Y42688000D01*
X43882571Y42902286D01*
X43954000Y43116571D01*
X44096857Y43259429D01*
X44239714Y43330857D01*
X44525429Y43402286D01*
X44739714Y43402286D01*
X45025429Y43330857D01*
X45168286Y43259429D01*
X45311143Y43116571D01*
X45382571Y42902286D01*
X45382571Y42759429D01*
X45311143Y42545143D01*
X45239714Y42473714D01*
X44739714Y42473714D01*
X44739714Y42759429D01*
X45382571Y41830857D02*
X43882571Y41830857D01*
X43882571Y41259429D01*
X43954000Y41116571D01*
X44025429Y41045143D01*
X44168286Y40973714D01*
X44382571Y40973714D01*
X44525429Y41045143D01*
X44596857Y41116571D01*
X44668286Y41259429D01*
X44668286Y41830857D01*
X45382571Y40330857D02*
X43882571Y40330857D01*
X43882571Y39330857D02*
X43882571Y39045143D01*
X43954000Y38902285D01*
X44096857Y38759428D01*
X44382571Y38688000D01*
X44882571Y38688000D01*
X45168286Y38759428D01*
X45311143Y38902285D01*
X45382571Y39045143D01*
X45382571Y39330857D01*
X45311143Y39473714D01*
X45168286Y39616571D01*
X44882571Y39688000D01*
X44382571Y39688000D01*
X44096857Y39616571D01*
X43954000Y39473714D01*
X43882571Y39330857D01*
X45382571Y37259428D02*
X45382571Y38116571D01*
X45382571Y37687999D02*
X43882571Y37687999D01*
X44096857Y37830856D01*
X44239714Y37973714D01*
X44311143Y38116571D01*
X45525429Y36973714D02*
X45525429Y35830857D01*
X43882571Y35188000D02*
X43882571Y35045143D01*
X43954000Y34902286D01*
X44025429Y34830857D01*
X44168286Y34759428D01*
X44454000Y34688000D01*
X44811143Y34688000D01*
X45096857Y34759428D01*
X45239714Y34830857D01*
X45311143Y34902286D01*
X45382571Y35045143D01*
X45382571Y35188000D01*
X45311143Y35330857D01*
X45239714Y35402286D01*
X45096857Y35473714D01*
X44811143Y35545143D01*
X44454000Y35545143D01*
X44168286Y35473714D01*
X44025429Y35402286D01*
X43954000Y35330857D01*
X43882571Y35188000D01*
X39166095Y43541237D02*
X39166095Y42798380D01*
X40466095Y43169809D02*
X39166095Y43169809D01*
X40466095Y41622190D02*
X39847048Y42055523D01*
X40466095Y42365047D02*
X39166095Y42365047D01*
X39166095Y41869809D01*
X39228000Y41746000D01*
X39289905Y41684095D01*
X39413714Y41622190D01*
X39599429Y41622190D01*
X39723238Y41684095D01*
X39785143Y41746000D01*
X39847048Y41869809D01*
X39847048Y42365047D01*
X40094667Y41126952D02*
X40094667Y40507904D01*
X40466095Y41250761D02*
X39166095Y40817428D01*
X40466095Y40384095D01*
X40342286Y39207904D02*
X40404190Y39269809D01*
X40466095Y39455523D01*
X40466095Y39579333D01*
X40404190Y39765047D01*
X40280381Y39888856D01*
X40156571Y39950761D01*
X39908952Y40012666D01*
X39723238Y40012666D01*
X39475619Y39950761D01*
X39351810Y39888856D01*
X39228000Y39765047D01*
X39166095Y39579333D01*
X39166095Y39455523D01*
X39228000Y39269809D01*
X39289905Y39207904D01*
X39785143Y38650761D02*
X39785143Y38217428D01*
X40466095Y38031714D02*
X40466095Y38650761D01*
X39166095Y38650761D01*
X39166095Y38031714D01*
X40466095Y37474571D02*
X39166095Y37474571D01*
X39166095Y37165047D01*
X39228000Y36979333D01*
X39351810Y36855524D01*
X39475619Y36793619D01*
X39723238Y36731714D01*
X39908952Y36731714D01*
X40156571Y36793619D01*
X40280381Y36855524D01*
X40404190Y36979333D01*
X40466095Y37165047D01*
X40466095Y37474571D01*
X40094667Y36236476D02*
X40094667Y35617428D01*
X40466095Y36360285D02*
X39166095Y35926952D01*
X40466095Y35493619D01*
X39166095Y35245999D02*
X39166095Y34503142D01*
X40466095Y34874571D02*
X39166095Y34874571D01*
X40094667Y34131714D02*
X40094667Y33512666D01*
X40466095Y34255523D02*
X39166095Y33822190D01*
X40466095Y33388857D01*
X39166095Y33079333D02*
X39166095Y32274571D01*
X39661333Y32707904D01*
X39661333Y32522190D01*
X39723238Y32398380D01*
X39785143Y32336476D01*
X39908952Y32274571D01*
X40218476Y32274571D01*
X40342286Y32336476D01*
X40404190Y32398380D01*
X40466095Y32522190D01*
X40466095Y32893618D01*
X40404190Y33017428D01*
X40342286Y33079333D01*
X36626095Y43541237D02*
X36626095Y42798380D01*
X37926095Y43169809D02*
X36626095Y43169809D01*
X37926095Y41622190D02*
X37307048Y42055523D01*
X37926095Y42365047D02*
X36626095Y42365047D01*
X36626095Y41869809D01*
X36688000Y41746000D01*
X36749905Y41684095D01*
X36873714Y41622190D01*
X37059429Y41622190D01*
X37183238Y41684095D01*
X37245143Y41746000D01*
X37307048Y41869809D01*
X37307048Y42365047D01*
X37554667Y41126952D02*
X37554667Y40507904D01*
X37926095Y41250761D02*
X36626095Y40817428D01*
X37926095Y40384095D01*
X37802286Y39207904D02*
X37864190Y39269809D01*
X37926095Y39455523D01*
X37926095Y39579333D01*
X37864190Y39765047D01*
X37740381Y39888856D01*
X37616571Y39950761D01*
X37368952Y40012666D01*
X37183238Y40012666D01*
X36935619Y39950761D01*
X36811810Y39888856D01*
X36688000Y39765047D01*
X36626095Y39579333D01*
X36626095Y39455523D01*
X36688000Y39269809D01*
X36749905Y39207904D01*
X37245143Y38650761D02*
X37245143Y38217428D01*
X37926095Y38031714D02*
X37926095Y38650761D01*
X36626095Y38650761D01*
X36626095Y38031714D01*
X37926095Y37474571D02*
X36626095Y37474571D01*
X36626095Y37165047D01*
X36688000Y36979333D01*
X36811810Y36855524D01*
X36935619Y36793619D01*
X37183238Y36731714D01*
X37368952Y36731714D01*
X37616571Y36793619D01*
X37740381Y36855524D01*
X37864190Y36979333D01*
X37926095Y37165047D01*
X37926095Y37474571D01*
X37554667Y36236476D02*
X37554667Y35617428D01*
X37926095Y36360285D02*
X36626095Y35926952D01*
X37926095Y35493619D01*
X36626095Y35245999D02*
X36626095Y34503142D01*
X37926095Y34874571D02*
X36626095Y34874571D01*
X37554667Y34131714D02*
X37554667Y33512666D01*
X37926095Y34255523D02*
X36626095Y33822190D01*
X37926095Y33388857D01*
X36749905Y33017428D02*
X36688000Y32955523D01*
X36626095Y32831714D01*
X36626095Y32522190D01*
X36688000Y32398380D01*
X36749905Y32336476D01*
X36873714Y32274571D01*
X36997524Y32274571D01*
X37183238Y32336476D01*
X37926095Y33079333D01*
X37926095Y32274571D01*
X33832095Y43541237D02*
X33832095Y42798380D01*
X35132095Y43169809D02*
X33832095Y43169809D01*
X35132095Y41622190D02*
X34513048Y42055523D01*
X35132095Y42365047D02*
X33832095Y42365047D01*
X33832095Y41869809D01*
X33894000Y41746000D01*
X33955905Y41684095D01*
X34079714Y41622190D01*
X34265429Y41622190D01*
X34389238Y41684095D01*
X34451143Y41746000D01*
X34513048Y41869809D01*
X34513048Y42365047D01*
X34760667Y41126952D02*
X34760667Y40507904D01*
X35132095Y41250761D02*
X33832095Y40817428D01*
X35132095Y40384095D01*
X35008286Y39207904D02*
X35070190Y39269809D01*
X35132095Y39455523D01*
X35132095Y39579333D01*
X35070190Y39765047D01*
X34946381Y39888856D01*
X34822571Y39950761D01*
X34574952Y40012666D01*
X34389238Y40012666D01*
X34141619Y39950761D01*
X34017810Y39888856D01*
X33894000Y39765047D01*
X33832095Y39579333D01*
X33832095Y39455523D01*
X33894000Y39269809D01*
X33955905Y39207904D01*
X34451143Y38650761D02*
X34451143Y38217428D01*
X35132095Y38031714D02*
X35132095Y38650761D01*
X33832095Y38650761D01*
X33832095Y38031714D01*
X35132095Y37474571D02*
X33832095Y37474571D01*
X33832095Y37165047D01*
X33894000Y36979333D01*
X34017810Y36855524D01*
X34141619Y36793619D01*
X34389238Y36731714D01*
X34574952Y36731714D01*
X34822571Y36793619D01*
X34946381Y36855524D01*
X35070190Y36979333D01*
X35132095Y37165047D01*
X35132095Y37474571D01*
X34760667Y36236476D02*
X34760667Y35617428D01*
X35132095Y36360285D02*
X33832095Y35926952D01*
X35132095Y35493619D01*
X33832095Y35245999D02*
X33832095Y34503142D01*
X35132095Y34874571D02*
X33832095Y34874571D01*
X34760667Y34131714D02*
X34760667Y33512666D01*
X35132095Y34255523D02*
X33832095Y33822190D01*
X35132095Y33388857D01*
X35132095Y32274571D02*
X35132095Y33017428D01*
X35132095Y32645999D02*
X33832095Y32645999D01*
X34017810Y32769809D01*
X34141619Y32893618D01*
X34203524Y33017428D01*
X31292095Y43541237D02*
X31292095Y42798380D01*
X32592095Y43169809D02*
X31292095Y43169809D01*
X32592095Y41622190D02*
X31973048Y42055523D01*
X32592095Y42365047D02*
X31292095Y42365047D01*
X31292095Y41869809D01*
X31354000Y41746000D01*
X31415905Y41684095D01*
X31539714Y41622190D01*
X31725429Y41622190D01*
X31849238Y41684095D01*
X31911143Y41746000D01*
X31973048Y41869809D01*
X31973048Y42365047D01*
X32220667Y41126952D02*
X32220667Y40507904D01*
X32592095Y41250761D02*
X31292095Y40817428D01*
X32592095Y40384095D01*
X32468286Y39207904D02*
X32530190Y39269809D01*
X32592095Y39455523D01*
X32592095Y39579333D01*
X32530190Y39765047D01*
X32406381Y39888856D01*
X32282571Y39950761D01*
X32034952Y40012666D01*
X31849238Y40012666D01*
X31601619Y39950761D01*
X31477810Y39888856D01*
X31354000Y39765047D01*
X31292095Y39579333D01*
X31292095Y39455523D01*
X31354000Y39269809D01*
X31415905Y39207904D01*
X31911143Y38650761D02*
X31911143Y38217428D01*
X32592095Y38031714D02*
X32592095Y38650761D01*
X31292095Y38650761D01*
X31292095Y38031714D01*
X32592095Y37474571D02*
X31292095Y37474571D01*
X31292095Y37165047D01*
X31354000Y36979333D01*
X31477810Y36855524D01*
X31601619Y36793619D01*
X31849238Y36731714D01*
X32034952Y36731714D01*
X32282571Y36793619D01*
X32406381Y36855524D01*
X32530190Y36979333D01*
X32592095Y37165047D01*
X32592095Y37474571D01*
X32220667Y36236476D02*
X32220667Y35617428D01*
X32592095Y36360285D02*
X31292095Y35926952D01*
X32592095Y35493619D01*
X31292095Y35245999D02*
X31292095Y34503142D01*
X32592095Y34874571D02*
X31292095Y34874571D01*
X32220667Y34131714D02*
X32220667Y33512666D01*
X32592095Y34255523D02*
X31292095Y33822190D01*
X32592095Y33388857D01*
X31292095Y32707904D02*
X31292095Y32584095D01*
X31354000Y32460285D01*
X31415905Y32398380D01*
X31539714Y32336476D01*
X31787333Y32274571D01*
X32096857Y32274571D01*
X32344476Y32336476D01*
X32468286Y32398380D01*
X32530190Y32460285D01*
X32592095Y32584095D01*
X32592095Y32707904D01*
X32530190Y32831714D01*
X32468286Y32893618D01*
X32344476Y32955523D01*
X32096857Y33017428D01*
X31787333Y33017428D01*
X31539714Y32955523D01*
X31415905Y32893618D01*
X31354000Y32831714D01*
X31292095Y32707904D01*
D14*
X28861619Y43583238D02*
X28861619Y42954667D01*
X29961619Y43268952D02*
X28861619Y43268952D01*
X29961619Y41959429D02*
X29437810Y42326095D01*
X29961619Y42588000D02*
X28861619Y42588000D01*
X28861619Y42168953D01*
X28914000Y42064191D01*
X28966381Y42011810D01*
X29071143Y41959429D01*
X29228286Y41959429D01*
X29333048Y42011810D01*
X29385429Y42064191D01*
X29437810Y42168953D01*
X29437810Y42588000D01*
X29647333Y41540381D02*
X29647333Y41016572D01*
X29961619Y41645143D02*
X28861619Y41278476D01*
X29961619Y40911810D01*
X29856857Y39916572D02*
X29909238Y39968953D01*
X29961619Y40126096D01*
X29961619Y40230858D01*
X29909238Y40388000D01*
X29804476Y40492762D01*
X29699714Y40545143D01*
X29490190Y40597524D01*
X29333048Y40597524D01*
X29123524Y40545143D01*
X29018762Y40492762D01*
X28914000Y40388000D01*
X28861619Y40230858D01*
X28861619Y40126096D01*
X28914000Y39968953D01*
X28966381Y39916572D01*
X29385429Y39445143D02*
X29385429Y39078477D01*
X29961619Y38921334D02*
X29961619Y39445143D01*
X28861619Y39445143D01*
X28861619Y38921334D01*
X29856857Y37821334D02*
X29909238Y37873715D01*
X29961619Y38030858D01*
X29961619Y38135620D01*
X29909238Y38292762D01*
X29804476Y38397524D01*
X29699714Y38449905D01*
X29490190Y38502286D01*
X29333048Y38502286D01*
X29123524Y38449905D01*
X29018762Y38397524D01*
X28914000Y38292762D01*
X28861619Y38135620D01*
X28861619Y38030858D01*
X28914000Y37873715D01*
X28966381Y37821334D01*
X29961619Y36826096D02*
X29961619Y37349905D01*
X28861619Y37349905D01*
X29961619Y36459429D02*
X28861619Y36459429D01*
X29961619Y35830858D02*
X29333048Y36302286D01*
X28861619Y35830858D02*
X29490190Y36459429D01*
X30066381Y35621334D02*
X30066381Y34783239D01*
X29961619Y33892763D02*
X29437810Y34259429D01*
X29961619Y34521334D02*
X28861619Y34521334D01*
X28861619Y34102287D01*
X28914000Y33997525D01*
X28966381Y33945144D01*
X29071143Y33892763D01*
X29228286Y33892763D01*
X29333048Y33945144D01*
X29385429Y33997525D01*
X29437810Y34102287D01*
X29437810Y34521334D01*
X28861619Y33578477D02*
X28861619Y32949906D01*
X29961619Y33264191D02*
X28861619Y33264191D01*
X29856857Y31954668D02*
X29909238Y32007049D01*
X29961619Y32164192D01*
X29961619Y32268954D01*
X29909238Y32426096D01*
X29804476Y32530858D01*
X29699714Y32583239D01*
X29490190Y32635620D01*
X29333048Y32635620D01*
X29123524Y32583239D01*
X29018762Y32530858D01*
X28914000Y32426096D01*
X28861619Y32268954D01*
X28861619Y32164192D01*
X28914000Y32007049D01*
X28966381Y31954668D01*
X29961619Y31483239D02*
X28861619Y31483239D01*
X29961619Y30854668D02*
X29333048Y31326096D01*
X28861619Y30854668D02*
X29490190Y31483239D01*
D13*
X26102571Y42902286D02*
X27174000Y42902286D01*
X27388286Y42973714D01*
X27531143Y43116571D01*
X27602571Y43330857D01*
X27602571Y43473714D01*
X26102571Y42402286D02*
X26102571Y41545143D01*
X27602571Y41973714D02*
X26102571Y41973714D01*
X27174000Y41116572D02*
X27174000Y40402286D01*
X27602571Y41259429D02*
X26102571Y40759429D01*
X27602571Y40259429D01*
X26174000Y38973715D02*
X26102571Y39116572D01*
X26102571Y39330858D01*
X26174000Y39545143D01*
X26316857Y39688001D01*
X26459714Y39759429D01*
X26745429Y39830858D01*
X26959714Y39830858D01*
X27245429Y39759429D01*
X27388286Y39688001D01*
X27531143Y39545143D01*
X27602571Y39330858D01*
X27602571Y39188001D01*
X27531143Y38973715D01*
X27459714Y38902286D01*
X26959714Y38902286D01*
X26959714Y39188001D01*
X27745429Y38616572D02*
X27745429Y37473715D01*
X27602571Y36259429D02*
X26888286Y36759429D01*
X27602571Y37116572D02*
X26102571Y37116572D01*
X26102571Y36545144D01*
X26174000Y36402286D01*
X26245429Y36330858D01*
X26388286Y36259429D01*
X26602571Y36259429D01*
X26745429Y36330858D01*
X26816857Y36402286D01*
X26888286Y36545144D01*
X26888286Y37116572D01*
X26816857Y35616572D02*
X26816857Y35116572D01*
X27602571Y34902286D02*
X27602571Y35616572D01*
X26102571Y35616572D01*
X26102571Y34902286D01*
X27531143Y34330858D02*
X27602571Y34116572D01*
X27602571Y33759429D01*
X27531143Y33616572D01*
X27459714Y33545143D01*
X27316857Y33473715D01*
X27174000Y33473715D01*
X27031143Y33545143D01*
X26959714Y33616572D01*
X26888286Y33759429D01*
X26816857Y34045143D01*
X26745429Y34188001D01*
X26674000Y34259429D01*
X26531143Y34330858D01*
X26388286Y34330858D01*
X26245429Y34259429D01*
X26174000Y34188001D01*
X26102571Y34045143D01*
X26102571Y33688001D01*
X26174000Y33473715D01*
X26816857Y32830858D02*
X26816857Y32330858D01*
X27602571Y32116572D02*
X27602571Y32830858D01*
X26102571Y32830858D01*
X26102571Y32116572D01*
X26102571Y31688001D02*
X26102571Y30830858D01*
X27602571Y31259429D02*
X26102571Y31259429D01*
X23308571Y42902286D02*
X24380000Y42902286D01*
X24594286Y42973714D01*
X24737143Y43116571D01*
X24808571Y43330857D01*
X24808571Y43473714D01*
X23308571Y42402286D02*
X23308571Y41545143D01*
X24808571Y41973714D02*
X23308571Y41973714D01*
X24380000Y41116572D02*
X24380000Y40402286D01*
X24808571Y41259429D02*
X23308571Y40759429D01*
X24808571Y40259429D01*
X23380000Y38973715D02*
X23308571Y39116572D01*
X23308571Y39330858D01*
X23380000Y39545143D01*
X23522857Y39688001D01*
X23665714Y39759429D01*
X23951429Y39830858D01*
X24165714Y39830858D01*
X24451429Y39759429D01*
X24594286Y39688001D01*
X24737143Y39545143D01*
X24808571Y39330858D01*
X24808571Y39188001D01*
X24737143Y38973715D01*
X24665714Y38902286D01*
X24165714Y38902286D01*
X24165714Y39188001D01*
X24951429Y38616572D02*
X24951429Y37473715D01*
X23308571Y37330858D02*
X23308571Y36473715D01*
X24808571Y36902286D02*
X23308571Y36902286D01*
X24808571Y35973715D02*
X23308571Y35973715D01*
X23308571Y35616572D01*
X23380000Y35402287D01*
X23522857Y35259429D01*
X23665714Y35188001D01*
X23951429Y35116572D01*
X24165714Y35116572D01*
X24451429Y35188001D01*
X24594286Y35259429D01*
X24737143Y35402287D01*
X24808571Y35616572D01*
X24808571Y35973715D01*
X24808571Y34473715D02*
X23308571Y34473715D01*
X21022571Y42902286D02*
X22094000Y42902286D01*
X22308286Y42973714D01*
X22451143Y43116571D01*
X22522571Y43330857D01*
X22522571Y43473714D01*
X21022571Y42402286D02*
X21022571Y41545143D01*
X22522571Y41973714D02*
X21022571Y41973714D01*
X22094000Y41116572D02*
X22094000Y40402286D01*
X22522571Y41259429D02*
X21022571Y40759429D01*
X22522571Y40259429D01*
X21094000Y38973715D02*
X21022571Y39116572D01*
X21022571Y39330858D01*
X21094000Y39545143D01*
X21236857Y39688001D01*
X21379714Y39759429D01*
X21665429Y39830858D01*
X21879714Y39830858D01*
X22165429Y39759429D01*
X22308286Y39688001D01*
X22451143Y39545143D01*
X22522571Y39330858D01*
X22522571Y39188001D01*
X22451143Y38973715D01*
X22379714Y38902286D01*
X21879714Y38902286D01*
X21879714Y39188001D01*
X22665429Y38616572D02*
X22665429Y37473715D01*
X21022571Y37330858D02*
X21022571Y36473715D01*
X22522571Y36902286D02*
X21022571Y36902286D01*
X22522571Y35973715D02*
X21022571Y35973715D01*
X21022571Y35616572D01*
X21094000Y35402287D01*
X21236857Y35259429D01*
X21379714Y35188001D01*
X21665429Y35116572D01*
X21879714Y35116572D01*
X22165429Y35188001D01*
X22308286Y35259429D01*
X22451143Y35402287D01*
X22522571Y35616572D01*
X22522571Y35973715D01*
X21022571Y34188001D02*
X21022571Y33902287D01*
X21094000Y33759429D01*
X21236857Y33616572D01*
X21522571Y33545144D01*
X22022571Y33545144D01*
X22308286Y33616572D01*
X22451143Y33759429D01*
X22522571Y33902287D01*
X22522571Y34188001D01*
X22451143Y34330858D01*
X22308286Y34473715D01*
X22022571Y34545144D01*
X21522571Y34545144D01*
X21236857Y34473715D01*
X21094000Y34330858D01*
X21022571Y34188001D01*
X22665429Y33259429D02*
X22665429Y32116572D01*
X22451143Y31830858D02*
X22522571Y31616572D01*
X22522571Y31259429D01*
X22451143Y31116572D01*
X22379714Y31045143D01*
X22236857Y30973715D01*
X22094000Y30973715D01*
X21951143Y31045143D01*
X21879714Y31116572D01*
X21808286Y31259429D01*
X21736857Y31545143D01*
X21665429Y31688001D01*
X21594000Y31759429D01*
X21451143Y31830858D01*
X21308286Y31830858D01*
X21165429Y31759429D01*
X21094000Y31688001D01*
X21022571Y31545143D01*
X21022571Y31188001D01*
X21094000Y30973715D01*
X21022571Y30473715D02*
X22522571Y30116572D01*
X21451143Y29830858D01*
X22522571Y29545144D01*
X21022571Y29188001D01*
X21022571Y28330858D02*
X21022571Y28045144D01*
X21094000Y27902286D01*
X21236857Y27759429D01*
X21522571Y27688001D01*
X22022571Y27688001D01*
X22308286Y27759429D01*
X22451143Y27902286D01*
X22522571Y28045144D01*
X22522571Y28330858D01*
X22451143Y28473715D01*
X22308286Y28616572D01*
X22022571Y28688001D01*
X21522571Y28688001D01*
X21236857Y28616572D01*
X21094000Y28473715D01*
X21022571Y28330858D01*
X18482571Y42902286D02*
X19554000Y42902286D01*
X19768286Y42973714D01*
X19911143Y43116571D01*
X19982571Y43330857D01*
X19982571Y43473714D01*
X18482571Y42402286D02*
X18482571Y41545143D01*
X19982571Y41973714D02*
X18482571Y41973714D01*
X19554000Y41116572D02*
X19554000Y40402286D01*
X19982571Y41259429D02*
X18482571Y40759429D01*
X19982571Y40259429D01*
X18554000Y38973715D02*
X18482571Y39116572D01*
X18482571Y39330858D01*
X18554000Y39545143D01*
X18696857Y39688001D01*
X18839714Y39759429D01*
X19125429Y39830858D01*
X19339714Y39830858D01*
X19625429Y39759429D01*
X19768286Y39688001D01*
X19911143Y39545143D01*
X19982571Y39330858D01*
X19982571Y39188001D01*
X19911143Y38973715D01*
X19839714Y38902286D01*
X19339714Y38902286D01*
X19339714Y39188001D01*
X20125429Y38616572D02*
X20125429Y37473715D01*
X18482571Y37330858D02*
X18482571Y36473715D01*
X19982571Y36902286D02*
X18482571Y36902286D01*
X19839714Y35116572D02*
X19911143Y35188001D01*
X19982571Y35402287D01*
X19982571Y35545144D01*
X19911143Y35759429D01*
X19768286Y35902287D01*
X19625429Y35973715D01*
X19339714Y36045144D01*
X19125429Y36045144D01*
X18839714Y35973715D01*
X18696857Y35902287D01*
X18554000Y35759429D01*
X18482571Y35545144D01*
X18482571Y35402287D01*
X18554000Y35188001D01*
X18625429Y35116572D01*
X19982571Y34473715D02*
X18482571Y34473715D01*
X19982571Y33616572D02*
X19125429Y34259429D01*
X18482571Y33616572D02*
X19339714Y34473715D01*
X20125429Y33330858D02*
X20125429Y32188001D01*
X19911143Y31902287D02*
X19982571Y31688001D01*
X19982571Y31330858D01*
X19911143Y31188001D01*
X19839714Y31116572D01*
X19696857Y31045144D01*
X19554000Y31045144D01*
X19411143Y31116572D01*
X19339714Y31188001D01*
X19268286Y31330858D01*
X19196857Y31616572D01*
X19125429Y31759430D01*
X19054000Y31830858D01*
X18911143Y31902287D01*
X18768286Y31902287D01*
X18625429Y31830858D01*
X18554000Y31759430D01*
X18482571Y31616572D01*
X18482571Y31259430D01*
X18554000Y31045144D01*
X18482571Y30545144D02*
X19982571Y30188001D01*
X18911143Y29902287D01*
X19982571Y29616573D01*
X18482571Y29259430D01*
X19839714Y27830858D02*
X19911143Y27902287D01*
X19982571Y28116573D01*
X19982571Y28259430D01*
X19911143Y28473715D01*
X19768286Y28616573D01*
X19625429Y28688001D01*
X19339714Y28759430D01*
X19125429Y28759430D01*
X18839714Y28688001D01*
X18696857Y28616573D01*
X18554000Y28473715D01*
X18482571Y28259430D01*
X18482571Y28116573D01*
X18554000Y27902287D01*
X18625429Y27830858D01*
X19982571Y26473715D02*
X19982571Y27188001D01*
X18482571Y27188001D01*
X19982571Y25973715D02*
X18482571Y25973715D01*
X19982571Y25116572D02*
X19125429Y25759429D01*
X18482571Y25116572D02*
X19339714Y25973715D01*
X15942571Y42902286D02*
X17014000Y42902286D01*
X17228286Y42973714D01*
X17371143Y43116571D01*
X17442571Y43330857D01*
X17442571Y43473714D01*
X15942571Y42402286D02*
X15942571Y41545143D01*
X17442571Y41973714D02*
X15942571Y41973714D01*
X17014000Y41116572D02*
X17014000Y40402286D01*
X17442571Y41259429D02*
X15942571Y40759429D01*
X17442571Y40259429D01*
X16014000Y38973715D02*
X15942571Y39116572D01*
X15942571Y39330858D01*
X16014000Y39545143D01*
X16156857Y39688001D01*
X16299714Y39759429D01*
X16585429Y39830858D01*
X16799714Y39830858D01*
X17085429Y39759429D01*
X17228286Y39688001D01*
X17371143Y39545143D01*
X17442571Y39330858D01*
X17442571Y39188001D01*
X17371143Y38973715D01*
X17299714Y38902286D01*
X16799714Y38902286D01*
X16799714Y39188001D01*
X17585429Y38616572D02*
X17585429Y37473715D01*
X15942571Y37330858D02*
X15942571Y36473715D01*
X17442571Y36902286D02*
X15942571Y36902286D01*
X17442571Y35973715D02*
X15942571Y35973715D01*
X17014000Y35473715D01*
X15942571Y34973715D01*
X17442571Y34973715D01*
X17371143Y34330858D02*
X17442571Y34116572D01*
X17442571Y33759429D01*
X17371143Y33616572D01*
X17299714Y33545143D01*
X17156857Y33473715D01*
X17014000Y33473715D01*
X16871143Y33545143D01*
X16799714Y33616572D01*
X16728286Y33759429D01*
X16656857Y34045143D01*
X16585429Y34188001D01*
X16514000Y34259429D01*
X16371143Y34330858D01*
X16228286Y34330858D01*
X16085429Y34259429D01*
X16014000Y34188001D01*
X15942571Y34045143D01*
X15942571Y33688001D01*
X16014000Y33473715D01*
X17585429Y33188001D02*
X17585429Y32045144D01*
X17371143Y31759430D02*
X17442571Y31545144D01*
X17442571Y31188001D01*
X17371143Y31045144D01*
X17299714Y30973715D01*
X17156857Y30902287D01*
X17014000Y30902287D01*
X16871143Y30973715D01*
X16799714Y31045144D01*
X16728286Y31188001D01*
X16656857Y31473715D01*
X16585429Y31616573D01*
X16514000Y31688001D01*
X16371143Y31759430D01*
X16228286Y31759430D01*
X16085429Y31688001D01*
X16014000Y31616573D01*
X15942571Y31473715D01*
X15942571Y31116573D01*
X16014000Y30902287D01*
X15942571Y30402287D02*
X17442571Y30045144D01*
X16371143Y29759430D01*
X17442571Y29473716D01*
X15942571Y29116573D01*
X17442571Y28545144D02*
X15942571Y28545144D01*
X15942571Y28188001D01*
X16014000Y27973716D01*
X16156857Y27830858D01*
X16299714Y27759430D01*
X16585429Y27688001D01*
X16799714Y27688001D01*
X17085429Y27759430D01*
X17228286Y27830858D01*
X17371143Y27973716D01*
X17442571Y28188001D01*
X17442571Y28545144D01*
X17442571Y27045144D02*
X15942571Y27045144D01*
X15942571Y26045144D02*
X15942571Y25759430D01*
X16014000Y25616572D01*
X16156857Y25473715D01*
X16442571Y25402287D01*
X16942571Y25402287D01*
X17228286Y25473715D01*
X17371143Y25616572D01*
X17442571Y25759430D01*
X17442571Y26045144D01*
X17371143Y26188001D01*
X17228286Y26330858D01*
X16942571Y26402287D01*
X16442571Y26402287D01*
X16156857Y26330858D01*
X16014000Y26188001D01*
X15942571Y26045144D01*
X42144000Y25713429D02*
X42144000Y24642000D01*
X42215428Y24427714D01*
X42358285Y24284857D01*
X42572571Y24213429D01*
X42715428Y24213429D01*
X41429714Y24213429D02*
X41429714Y25713429D01*
X40858286Y25713429D01*
X40715428Y25642000D01*
X40644000Y25570571D01*
X40572571Y25427714D01*
X40572571Y25213429D01*
X40644000Y25070571D01*
X40715428Y24999143D01*
X40858286Y24927714D01*
X41429714Y24927714D01*
X40001143Y25570571D02*
X39929714Y25642000D01*
X39786857Y25713429D01*
X39429714Y25713429D01*
X39286857Y25642000D01*
X39215428Y25570571D01*
X39144000Y25427714D01*
X39144000Y25284857D01*
X39215428Y25070571D01*
X40072571Y24213429D01*
X39144000Y24213429D01*
X23348000Y25713429D02*
X23348000Y24642000D01*
X23419428Y24427714D01*
X23562285Y24284857D01*
X23776571Y24213429D01*
X23919428Y24213429D01*
X22633714Y24213429D02*
X22633714Y25713429D01*
X22062286Y25713429D01*
X21919428Y25642000D01*
X21848000Y25570571D01*
X21776571Y25427714D01*
X21776571Y25213429D01*
X21848000Y25070571D01*
X21919428Y24999143D01*
X22062286Y24927714D01*
X22633714Y24927714D01*
X20348000Y24213429D02*
X21205143Y24213429D01*
X20776571Y24213429D02*
X20776571Y25713429D01*
X20919428Y25499143D01*
X21062286Y25356286D01*
X21205143Y25284857D01*
D15*
X11644381Y4905333D02*
X12358667Y4905333D01*
X12501524Y4952953D01*
X12596762Y5048191D01*
X12644381Y5191048D01*
X12644381Y5286286D01*
X11739619Y4476762D02*
X11692000Y4429143D01*
X11644381Y4333905D01*
X11644381Y4095809D01*
X11692000Y4000571D01*
X11739619Y3952952D01*
X11834857Y3905333D01*
X11930095Y3905333D01*
X12072952Y3952952D01*
X12644381Y4524381D01*
X12644381Y3905333D01*
X26884381Y4905333D02*
X27598667Y4905333D01*
X27741524Y4952953D01*
X27836762Y5048191D01*
X27884381Y5191048D01*
X27884381Y5286286D01*
X26884381Y4524381D02*
X26884381Y3905333D01*
X27265333Y4238667D01*
X27265333Y4095809D01*
X27312952Y4000571D01*
X27360571Y3952952D01*
X27455810Y3905333D01*
X27693905Y3905333D01*
X27789143Y3952952D01*
X27836762Y4000571D01*
X27884381Y4095809D01*
X27884381Y4381524D01*
X27836762Y4476762D01*
X27789143Y4524381D01*
X47204381Y4905333D02*
X47918667Y4905333D01*
X48061524Y4952953D01*
X48156762Y5048191D01*
X48204381Y5191048D01*
X48204381Y5286286D01*
X47537714Y4000571D02*
X48204381Y4000571D01*
X47156762Y4238667D02*
X47871048Y4476762D01*
X47871048Y3857714D01*
X13168381Y48339333D02*
X13882667Y48339333D01*
X14025524Y48386953D01*
X14120762Y48482191D01*
X14168381Y48625048D01*
X14168381Y48720286D01*
X13168381Y47958381D02*
X13168381Y47291714D01*
X14168381Y47720286D01*
X14184381Y45545333D02*
X14898667Y45545333D01*
X15041524Y45592953D01*
X15136762Y45688191D01*
X15184381Y45831048D01*
X15184381Y45926286D01*
X14612952Y44926286D02*
X14565333Y45021524D01*
X14517714Y45069143D01*
X14422476Y45116762D01*
X14374857Y45116762D01*
X14279619Y45069143D01*
X14232000Y45021524D01*
X14184381Y44926286D01*
X14184381Y44735809D01*
X14232000Y44640571D01*
X14279619Y44592952D01*
X14374857Y44545333D01*
X14422476Y44545333D01*
X14517714Y44592952D01*
X14565333Y44640571D01*
X14612952Y44735809D01*
X14612952Y44926286D01*
X14660571Y45021524D01*
X14708190Y45069143D01*
X14803429Y45116762D01*
X14993905Y45116762D01*
X15089143Y45069143D01*
X15136762Y45021524D01*
X15184381Y44926286D01*
X15184381Y44735809D01*
X15136762Y44640571D01*
X15089143Y44592952D01*
X14993905Y44545333D01*
X14803429Y44545333D01*
X14708190Y44592952D01*
X14660571Y44640571D01*
X14612952Y44735809D01*
X42378381Y48085333D02*
X43092667Y48085333D01*
X43235524Y48132953D01*
X43330762Y48228191D01*
X43378381Y48371048D01*
X43378381Y48466286D01*
X43378381Y47561524D02*
X43378381Y47371048D01*
X43330762Y47275809D01*
X43283143Y47228190D01*
X43140286Y47132952D01*
X42949810Y47085333D01*
X42568857Y47085333D01*
X42473619Y47132952D01*
X42426000Y47180571D01*
X42378381Y47275809D01*
X42378381Y47466286D01*
X42426000Y47561524D01*
X42473619Y47609143D01*
X42568857Y47656762D01*
X42806952Y47656762D01*
X42902190Y47609143D01*
X42949810Y47561524D01*
X42997429Y47466286D01*
X42997429Y47275809D01*
X42949810Y47180571D01*
X42902190Y47132952D01*
X42806952Y47085333D01*
%LPC*%
D16*
X-9524600Y37211000D03*
X43815400Y9271000D03*
D17*
X69215400Y35941000D03*
X69215400Y33401000D03*
X69215400Y30861000D03*
X69215400Y28321000D03*
X69215400Y25781000D03*
X69215400Y23241000D03*
X69215400Y20701000D03*
X69215400Y18161000D03*
D18*
X69215400Y15621000D03*
D19*
X14224400Y4572200D03*
D20*
X14224400Y2032200D03*
X16764400Y4572200D03*
X16764400Y2032200D03*
X19304400Y4572200D03*
X19304400Y2032200D03*
X21844400Y4572200D03*
X21844400Y2032200D03*
X24384400Y4572200D03*
X24384400Y2032200D03*
D19*
X29464400Y4572200D03*
D20*
X29464400Y2032200D03*
X32004400Y4572200D03*
X32004400Y2032200D03*
X34544400Y4572200D03*
X34544400Y2032200D03*
X37084400Y4572200D03*
X37084400Y2032200D03*
X39624400Y4572200D03*
X39624400Y2032200D03*
X42164400Y4572200D03*
X42164400Y2032200D03*
X44704400Y4572200D03*
X44704400Y2032200D03*
D19*
X49784400Y4572200D03*
D20*
X49784400Y2032200D03*
X52324400Y4572200D03*
X52324400Y2032200D03*
X54864400Y4572200D03*
X54864400Y2032200D03*
X57404400Y4572200D03*
X57404400Y2032200D03*
X59944400Y4572200D03*
X59944400Y2032200D03*
X62484400Y4572200D03*
X62484400Y2032200D03*
X65024400Y4572200D03*
X65024400Y2032200D03*
X67564400Y4572200D03*
X67564400Y2032200D03*
X70104400Y4572200D03*
X70104400Y2032200D03*
X72644400Y4572200D03*
X72644400Y2032200D03*
D19*
X1524400Y47752000D03*
D20*
X1524400Y45212000D03*
X4064400Y47752000D03*
X4064400Y45212000D03*
X6604400Y47752000D03*
X6604400Y45212000D03*
X9144400Y47752000D03*
X9144400Y45212000D03*
X11684400Y47752000D03*
X11684400Y45212000D03*
D19*
X16764400Y47752000D03*
D20*
X16764400Y45212000D03*
X19304400Y47752000D03*
X19304400Y45212000D03*
X21844400Y47752000D03*
X21844400Y45212000D03*
X24384400Y47752000D03*
X24384400Y45212000D03*
X26924400Y47752000D03*
X26924400Y45212000D03*
X29464400Y47752000D03*
X29464400Y45212000D03*
X32004400Y47752000D03*
X32004400Y45212000D03*
X34544400Y47752000D03*
X34544400Y45212000D03*
X37084400Y47752000D03*
X37084400Y45212000D03*
X39624400Y47752000D03*
X39624400Y45212000D03*
D19*
X44704400Y47752000D03*
D20*
X44704400Y45212000D03*
X47244400Y47752000D03*
X47244400Y45212000D03*
X49784400Y47752000D03*
X49784400Y45212000D03*
X52324400Y47752000D03*
X52324400Y45212000D03*
X54864400Y47752000D03*
X54864400Y45212000D03*
X57404400Y47752000D03*
X57404400Y45212000D03*
X59944400Y47752000D03*
X59944400Y45212000D03*
X62484400Y47752000D03*
X62484400Y45212000D03*
X65024400Y47752000D03*
X65024400Y45212000D03*
X67564400Y47752000D03*
X67564400Y45212000D03*
X70104400Y47752000D03*
X70104400Y45212000D03*
X72644400Y47752000D03*
X72644400Y45212000D03*
D21*
X72644400Y14732000D03*
D22*
X72644400Y17272000D03*
X72644400Y19812000D03*
X72644400Y22352000D03*
X72644400Y24892000D03*
X72644400Y27432000D03*
X72644400Y29972000D03*
X72644400Y32512000D03*
X72644400Y35052000D03*
M02*
