M48
;DRILL file {kicad (after 2015-mar-04 BZR unknown)-product} date 2015年07月10日金曜日 07:55:24
;FORMAT={3:3/ absolute / metric / suppress leading zeros}
FMAT,2
METRIC,TZ
T1C0.300
T2C0.750
T3C1.016
%
G90
G05
M71
T1
X18796Y7620
X19939Y11542
X20066Y7620
X20320Y38608
X21844Y38608
X22606Y7620
X27940Y36576
X28956Y42228
X29210Y7728
X35560Y38354
X36830Y38354
X38100Y38354
X39370Y38354
X40640Y38354
X48768Y38354
X50038Y38354
X51308Y38354
X52578Y38354
X53848Y38354
X53848Y7620
X55118Y38354
X55372Y7620
X56388Y38354
X57912Y38354
X58166Y7620
X59182Y38354
X59690Y7620
X60452Y38354
X60960Y7620
X61976Y38354
X64262Y38354
X67310Y7620
X68834Y7620
T2
X69215Y35941
X69215Y33401
X69215Y30861
X69215Y28321
X69215Y25781
X69215Y23241
X69215Y20701
X69215Y18161
X69215Y15621
T3
X1524Y47752
X1524Y45212
X4064Y47752
X4064Y45212
X6604Y47752
X6604Y45212
X9144Y47752
X9144Y45212
X11684Y47752
X11684Y45212
X14224Y4572
X14224Y2032
X16764Y47752
X16764Y45212
X16764Y4572
X16764Y2032
X19304Y47752
X19304Y45212
X19304Y4572
X19304Y2032
X21844Y47752
X21844Y45212
X21844Y4572
X21844Y2032
X24384Y47752
X24384Y45212
X24384Y4572
X24384Y2032
X26924Y47752
X26924Y45212
X29464Y47752
X29464Y45212
X29464Y4572
X29464Y2032
X32004Y47752
X32004Y45212
X32004Y4572
X32004Y2032
X34544Y47752
X34544Y45212
X34544Y4572
X34544Y2032
X37084Y47752
X37084Y45212
X37084Y4572
X37084Y2032
X39624Y47752
X39624Y45212
X39624Y4572
X39624Y2032
X42164Y4572
X42164Y2032
X44704Y47752
X44704Y45212
X44704Y4572
X44704Y2032
X47244Y47752
X47244Y45212
X49784Y47752
X49784Y45212
X49784Y4572
X49784Y2032
X52324Y47752
X52324Y45212
X52324Y4572
X52324Y2032
X54864Y47752
X54864Y45212
X54864Y4572
X54864Y2032
X57404Y47752
X57404Y45212
X57404Y4572
X57404Y2032
X59944Y47752
X59944Y45212
X59944Y4572
X59944Y2032
X62484Y47752
X62484Y45212
X62484Y4572
X62484Y2032
X65024Y47752
X65024Y45212
X65024Y4572
X65024Y2032
X67564Y47752
X67564Y45212
X67564Y4572
X67564Y2032
X70104Y47752
X70104Y45212
X70104Y4572
X70104Y2032
X72644Y47752
X72644Y45212
X72644Y35052
X72644Y32512
X72644Y29972
X72644Y27432
X72644Y24892
X72644Y22352
X72644Y19812
X72644Y17272
X72644Y14732
X72644Y4572
X72644Y2032
T0
M30
